<?xml version="1.0" encoding="utf-8"?>
<!-- Generator: Adobe Illustrator 23.0.4, SVG Export Plug-In . SVG Version: 6.00 Build 0)  -->
<svg version="1.1" id="Layer_1" xmlns="http://www.w3.org/2000/svg" xmlns:xlink="http://www.w3.org/1999/xlink" x="0px" y="0px"
	 width="1431.5px" height="485px" viewBox="0 0 1431.5 485" style="enable-background:new 0 0 1431.5 485;" xml:space="preserve">
<style type="text/css">
	.st0{fill:#2E3192;}
	.st1{clip-path:url(#SVGID_2_);fill:#FFFFFF;}
	.st2{clip-path:url(#SVGID_2_);fill:#2E3192;}
	.st3{clip-path:url(#SVGID_2_);fill:#ED1C24;}
	.st4{clip-path:url(#SVGID_2_);fill:none;stroke:#FFFFFF;stroke-width:4.2;stroke-miterlimit:10;}
	.st5{clip-path:url(#SVGID_2_);fill:none;stroke:#FFFFFF;stroke-width:4.2;}
	.st6{clip-path:url(#SVGID_2_);fill:#BCBEC0;}
	.st7{clip-path:url(#SVGID_2_);fill:#7BD3F7;}
	.st8{clip-path:url(#SVGID_2_);fill:#90A7D6;}
	.st9{fill:#CFB87C;}
	.st10{fill:#FFFFFF;}
	.st11{stroke:#000000;stroke-width:2.5;}
</style>
<g>
	<g>
		<path d="M44.8,404.4v22c0,2.1,0.2,3.8,0.7,5.3c0.5,1.4,1.1,2.6,2,3.5c0.9,0.9,2,1.6,3.3,2c1.3,0.4,2.8,0.6,4.4,0.6
			c1.7,0,3.1-0.2,4.4-0.6c1.3-0.4,2.4-1.1,3.3-2c0.9-0.9,1.6-2.1,2-3.5c0.5-1.4,0.7-3.2,0.7-5.3v-22h3.4v22.8c0,1.8-0.3,3.6-0.8,5.2
			c-0.5,1.6-1.3,3.1-2.4,4.3c-1.1,1.2-2.5,2.2-4.3,2.9c-1.7,0.7-3.9,1.1-6.4,1.1c-2.5,0-4.6-0.4-6.3-1.1c-1.7-0.7-3.2-1.7-4.3-2.9
			c-1.1-1.2-1.9-2.7-2.4-4.3c-0.5-1.6-0.8-3.4-0.8-5.2v-22.8H44.8z"/>
		<path d="M78.9,414.3v4.4H79c0.6-1.6,1.7-2.8,3.2-3.8c1.5-0.9,3.2-1.4,5-1.4c1.8,0,3.3,0.2,4.5,0.7c1.2,0.5,2.2,1.1,2.9,2
			c0.7,0.8,1.2,1.9,1.5,3.1c0.3,1.2,0.4,2.6,0.4,4.1V440h-3.1V424c0-1.1-0.1-2.1-0.3-3.1c-0.2-0.9-0.5-1.8-1-2.5
			c-0.5-0.7-1.2-1.2-2-1.6c-0.8-0.4-1.9-0.6-3.2-0.6c-1.3,0-2.4,0.2-3.4,0.7c-1,0.4-1.8,1.1-2.5,1.8c-0.7,0.8-1.2,1.7-1.6,2.8
			c-0.4,1.1-0.6,2.3-0.6,3.5v15h-3.1v-25.7H78.9z"/>
		<path d="M106.3,404.4v5h-3.1v-5H106.3z M106.3,414.3V440h-3.1v-25.7H106.3z"/>
		<path d="M113.4,414.3l8.1,22.6h0.1l8-22.6h3.2l-9.6,25.7h-3.3l-9.9-25.7H113.4z"/>
		<path d="M138.7,431.5c0.3,1.2,0.8,2.3,1.5,3.3c0.7,1,1.6,1.8,2.6,2.4c1.1,0.6,2.3,0.9,3.8,0.9c2.3,0,4.1-0.6,5.4-1.8
			c1.3-1.2,2.2-2.8,2.7-4.8h3.1c-0.7,2.9-1.9,5.2-3.7,6.8c-1.8,1.6-4.3,2.4-7.6,2.4c-2,0-3.8-0.4-5.3-1.1c-1.5-0.7-2.7-1.7-3.6-2.9
			c-0.9-1.2-1.6-2.7-2.1-4.3c-0.4-1.6-0.7-3.4-0.7-5.2c0-1.7,0.2-3.4,0.7-5c0.4-1.6,1.1-3.1,2.1-4.4c0.9-1.3,2.1-2.3,3.6-3.1
			c1.5-0.8,3.2-1.2,5.3-1.2c2.1,0,3.8,0.4,5.3,1.2c1.5,0.8,2.7,1.9,3.6,3.3c0.9,1.3,1.6,2.9,2,4.6c0.4,1.7,0.6,3.5,0.5,5.3h-19.8
			C138.2,429.2,138.4,430.3,138.7,431.5z M154.3,421.9c-0.4-1.1-0.9-2.1-1.6-2.9c-0.7-0.8-1.5-1.5-2.5-2c-1-0.5-2.1-0.8-3.4-0.8
			c-1.3,0-2.4,0.3-3.4,0.8c-1,0.5-1.8,1.2-2.5,2c-0.7,0.8-1.3,1.8-1.7,2.9c-0.4,1.1-0.7,2.3-0.8,3.4h16.7
			C154.9,424.2,154.7,423,154.3,421.9z"/>
		<path d="M165.7,414.3v6h0.1c0.8-2.1,2-3.7,3.7-4.8c1.7-1.1,3.7-1.6,6-1.5v3.1c-1.4-0.1-2.7,0.1-3.9,0.6c-1.2,0.4-2.2,1.1-3,1.9
			c-0.8,0.8-1.5,1.8-2,3c-0.5,1.1-0.7,2.4-0.7,3.8V440h-3.1v-25.7H165.7z"/>
		<path d="M193.8,419.3c-0.4-0.7-0.9-1.3-1.5-1.8c-0.6-0.5-1.3-0.8-2.1-1c-0.8-0.2-1.6-0.3-2.5-0.3c-0.7,0-1.4,0.1-2.1,0.2
			c-0.7,0.1-1.4,0.4-2,0.7c-0.6,0.3-1.1,0.8-1.4,1.4c-0.4,0.6-0.5,1.3-0.5,2.1c0,0.7,0.2,1.3,0.5,1.8c0.3,0.5,0.8,0.9,1.3,1.2
			c0.5,0.3,1.1,0.6,1.7,0.8c0.6,0.2,1.2,0.4,1.7,0.5l4.2,0.9c0.9,0.1,1.8,0.4,2.7,0.7c0.9,0.3,1.7,0.8,2.3,1.4
			c0.7,0.6,1.2,1.3,1.7,2.1c0.4,0.8,0.6,1.8,0.6,2.9c0,1.4-0.3,2.6-0.9,3.6c-0.6,1-1.4,1.8-2.4,2.4c-1,0.6-2.1,1.1-3.3,1.3
			c-1.2,0.3-2.4,0.4-3.6,0.4c-3,0-5.5-0.7-7.4-2.1c-1.9-1.4-3-3.7-3.2-6.9h3.1c0.1,2.1,0.9,3.7,2.3,4.8c1.4,1.1,3.2,1.6,5.3,1.6
			c0.8,0,1.6-0.1,2.4-0.2c0.8-0.2,1.6-0.4,2.3-0.8c0.7-0.4,1.3-0.9,1.7-1.5c0.4-0.6,0.7-1.4,0.7-2.3c0-0.8-0.2-1.4-0.5-1.9
			c-0.3-0.5-0.7-0.9-1.3-1.3c-0.5-0.3-1.1-0.6-1.8-0.9c-0.7-0.2-1.4-0.4-2.1-0.6l-4-0.9c-1-0.3-2-0.6-2.8-0.9
			c-0.9-0.3-1.6-0.8-2.3-1.3c-0.6-0.5-1.2-1.1-1.5-1.9c-0.4-0.7-0.5-1.7-0.5-2.8c0-1.3,0.3-2.4,0.9-3.3c0.6-0.9,1.3-1.7,2.3-2.2
			c0.9-0.6,2-1,3.1-1.2c1.1-0.3,2.3-0.4,3.4-0.4c1.3,0,2.5,0.2,3.6,0.5c1.1,0.3,2.1,0.8,2.9,1.5c0.8,0.7,1.5,1.6,2,2.6
			c0.5,1,0.8,2.2,0.8,3.6h-3.1C194.4,420.9,194.2,420,193.8,419.3z"/>
		<path d="M206.7,404.4v5h-3.1v-5H206.7z M206.7,414.3V440h-3.1v-25.7H206.7z"/>
		<path d="M223.4,414.3v2.6h-5.2v17.4c0,1,0.1,1.8,0.4,2.4c0.3,0.6,1,0.9,2.1,1c0.9,0,1.8-0.1,2.7-0.2v2.6c-0.5,0-0.9,0-1.4,0
			c-0.5,0-0.9,0-1.4,0c-2.1,0-3.6-0.4-4.4-1.2c-0.8-0.8-1.2-2.3-1.2-4.5V417h-4.5v-2.6h4.5v-7.7h3.1v7.7H223.4z"/>
		<path d="M228.9,414.3l8.5,21.9l7.9-21.9h3.1l-11.2,29.6c-0.5,1.1-0.9,2-1.3,2.7c-0.4,0.7-0.8,1.3-1.3,1.7c-0.5,0.4-1,0.7-1.7,0.9
			c-0.6,0.2-1.5,0.3-2.5,0.3c-0.6,0-1.1-0.1-1.5-0.1c-0.3,0-0.7-0.1-0.9-0.2v-2.6c0.4,0.1,0.7,0.1,1.1,0.2c0.3,0,0.7,0.1,1.1,0.1
			c0.7,0,1.3-0.1,1.7-0.3c0.4-0.2,0.8-0.5,1.2-0.8c0.3-0.3,0.6-0.8,0.8-1.3c0.2-0.5,0.5-1,0.7-1.6l1.1-2.9l-10.3-25.6H228.9z"/>
		<path d="M282.5,414.7c1.5,0.7,2.8,1.7,3.8,2.9c1,1.2,1.8,2.7,2.3,4.3c0.5,1.6,0.8,3.4,0.8,5.3s-0.3,3.6-0.8,5.3
			c-0.5,1.6-1.3,3.1-2.3,4.3c-1,1.2-2.3,2.2-3.8,2.9c-1.5,0.7-3.3,1.1-5.2,1.1c-2,0-3.7-0.4-5.2-1.1c-1.5-0.7-2.8-1.7-3.8-2.9
			c-1-1.2-1.8-2.7-2.3-4.3c-0.5-1.6-0.8-3.4-0.8-5.3s0.3-3.6,0.8-5.3c0.5-1.6,1.3-3.1,2.3-4.3c1-1.2,2.3-2.2,3.8-2.9
			c1.5-0.7,3.2-1.1,5.2-1.1C279.3,413.6,281,413.9,282.5,414.7z M273.4,417.2c-1.1,0.6-2.1,1.5-2.8,2.5c-0.7,1-1.3,2.2-1.7,3.5
			c-0.4,1.3-0.6,2.7-0.6,4s0.2,2.7,0.6,4c0.4,1.3,0.9,2.5,1.7,3.5c0.7,1,1.7,1.9,2.8,2.5c1.1,0.6,2.4,0.9,3.9,0.9
			c1.5,0,2.8-0.3,3.9-0.9c1.1-0.6,2.1-1.5,2.8-2.5c0.7-1,1.3-2.2,1.7-3.5c0.4-1.3,0.6-2.7,0.6-4s-0.2-2.7-0.6-4
			c-0.4-1.3-0.9-2.5-1.7-3.5c-0.7-1-1.7-1.9-2.8-2.5c-1.1-0.6-2.4-0.9-3.9-0.9C275.8,416.2,274.5,416.5,273.4,417.2z"/>
		<path d="M299.5,417V440h-3.1V417H292v-2.6h4.4V412c0-1.1,0.1-2.1,0.2-3c0.2-0.9,0.5-1.7,0.9-2.4c0.5-0.7,1.1-1.2,1.9-1.5
			c0.8-0.4,1.9-0.5,3.1-0.5c0.5,0,0.9,0,1.3,0c0.4,0,0.8,0.1,1.3,0.1v2.7c-0.4-0.1-0.8-0.1-1.2-0.2c-0.4,0-0.7-0.1-1.1-0.1
			c-0.9,0-1.5,0.1-2,0.4c-0.5,0.3-0.8,0.6-1,1.1c-0.2,0.4-0.3,1-0.4,1.6c0,0.6-0.1,1.2-0.1,1.9v2.2h5.1v2.6H299.5z"/>
		<path d="M347.6,411.5c-0.7-1.1-1.5-2-2.5-2.7c-1-0.7-2.1-1.3-3.2-1.7c-1.2-0.4-2.4-0.6-3.7-0.6c-2.4,0-4.4,0.4-6.1,1.3
			c-1.7,0.9-3.1,2.1-4.2,3.6c-1.1,1.5-1.9,3.2-2.4,5c-0.5,1.9-0.8,3.8-0.8,5.7c0,1.9,0.3,3.8,0.8,5.7c0.5,1.9,1.3,3.6,2.4,5
			c1.1,1.5,2.5,2.7,4.2,3.6c1.7,0.9,3.7,1.3,6.1,1.3c1.7,0,3.2-0.3,4.5-0.9c1.3-0.6,2.5-1.4,3.4-2.4c1-1,1.7-2.2,2.3-3.6
			c0.6-1.4,1-2.9,1.1-4.5h3.4c-0.2,2.2-0.7,4.2-1.5,5.9c-0.8,1.8-1.8,3.3-3.1,4.5c-1.3,1.2-2.8,2.2-4.5,2.8c-1.7,0.7-3.6,1-5.7,1
			c-2.8,0-5.2-0.5-7.4-1.5c-2.1-1-3.9-2.4-5.3-4.1c-1.4-1.7-2.4-3.7-3.1-5.9c-0.7-2.2-1-4.6-1-7c0-2.5,0.3-4.8,1-7
			c0.7-2.2,1.7-4.2,3.1-5.9c1.4-1.7,3.2-3.1,5.3-4.1c2.1-1,4.6-1.5,7.4-1.5c1.7,0,3.3,0.2,5,0.7c1.6,0.5,3.1,1.2,4.4,2.2
			c1.3,1,2.4,2.2,3.3,3.6c0.9,1.4,1.4,3.1,1.7,4.9h-3.4C348.8,413.8,348.3,412.6,347.6,411.5z"/>
		<path d="M374.1,414.7c1.5,0.7,2.8,1.7,3.8,2.9c1,1.2,1.8,2.7,2.3,4.3c0.5,1.6,0.8,3.4,0.8,5.3s-0.3,3.6-0.8,5.3
			c-0.5,1.6-1.3,3.1-2.3,4.3c-1,1.2-2.3,2.2-3.8,2.9c-1.5,0.7-3.3,1.1-5.2,1.1c-2,0-3.7-0.4-5.2-1.1c-1.5-0.7-2.8-1.7-3.8-2.9
			c-1-1.2-1.8-2.7-2.3-4.3c-0.5-1.6-0.8-3.4-0.8-5.3s0.3-3.6,0.8-5.3c0.5-1.6,1.3-3.1,2.3-4.3c1-1.2,2.3-2.2,3.8-2.9
			c1.5-0.7,3.2-1.1,5.2-1.1C370.9,413.6,372.6,413.9,374.1,414.7z M365,417.2c-1.1,0.6-2.1,1.5-2.8,2.5c-0.7,1-1.3,2.2-1.7,3.5
			c-0.4,1.3-0.6,2.7-0.6,4s0.2,2.7,0.6,4c0.4,1.3,0.9,2.5,1.7,3.5c0.7,1,1.7,1.9,2.8,2.5c1.1,0.6,2.4,0.9,3.9,0.9
			c1.5,0,2.8-0.3,3.9-0.9c1.1-0.6,2.1-1.5,2.8-2.5c0.7-1,1.3-2.2,1.7-3.5c0.4-1.3,0.6-2.7,0.6-4s-0.2-2.7-0.6-4
			c-0.4-1.3-0.9-2.5-1.7-3.5c-0.7-1-1.7-1.9-2.8-2.5c-1.1-0.6-2.4-0.9-3.9-0.9C367.4,416.2,366.1,416.5,365,417.2z"/>
		<path d="M389.5,404.4V440h-3.1v-35.6H389.5z"/>
		<path d="M412.1,414.7c1.5,0.7,2.8,1.7,3.8,2.9c1,1.2,1.8,2.7,2.3,4.3c0.5,1.6,0.8,3.4,0.8,5.3s-0.3,3.6-0.8,5.3
			c-0.5,1.6-1.3,3.1-2.3,4.3c-1,1.2-2.3,2.2-3.8,2.9c-1.5,0.7-3.3,1.1-5.2,1.1c-2,0-3.7-0.4-5.2-1.1c-1.5-0.7-2.8-1.7-3.8-2.9
			c-1-1.2-1.8-2.7-2.3-4.3c-0.5-1.6-0.8-3.4-0.8-5.3s0.3-3.6,0.8-5.3c0.5-1.6,1.3-3.1,2.3-4.3c1-1.2,2.3-2.2,3.8-2.9
			c1.5-0.7,3.2-1.1,5.2-1.1C408.8,413.6,410.6,413.9,412.1,414.7z M402.9,417.2c-1.1,0.6-2.1,1.5-2.8,2.5c-0.7,1-1.3,2.2-1.7,3.5
			c-0.4,1.3-0.6,2.7-0.6,4s0.2,2.7,0.6,4c0.4,1.3,0.9,2.5,1.7,3.5c0.7,1,1.7,1.9,2.8,2.5c1.1,0.6,2.4,0.9,3.9,0.9
			c1.5,0,2.8-0.3,3.9-0.9c1.1-0.6,2.1-1.5,2.8-2.5c0.7-1,1.3-2.2,1.7-3.5c0.4-1.3,0.6-2.7,0.6-4s-0.2-2.7-0.6-4
			c-0.4-1.3-0.9-2.5-1.7-3.5c-0.7-1-1.7-1.9-2.8-2.5c-1.1-0.6-2.4-0.9-3.9-0.9C405.4,416.2,404.1,416.5,402.9,417.2z"/>
		<path d="M427.1,414.3v6h0.1c0.8-2.1,2-3.7,3.7-4.8c1.7-1.1,3.7-1.6,6-1.5v3.1c-1.4-0.1-2.7,0.1-3.9,0.6c-1.2,0.4-2.2,1.1-3,1.9
			c-0.8,0.8-1.5,1.8-2,3c-0.5,1.1-0.7,2.4-0.7,3.8V440h-3.1v-25.7H427.1z"/>
		<path d="M441.1,418.3c0.5-1.1,1.3-2,2.2-2.7c0.9-0.7,2-1.2,3.2-1.5c1.2-0.3,2.6-0.5,4.1-0.5c1.1,0,2.3,0.1,3.4,0.3
			c1.1,0.2,2.1,0.6,3,1.2c0.9,0.6,1.6,1.4,2.2,2.5c0.6,1.1,0.8,2.5,0.8,4.2v13.7c0,1.3,0.6,1.9,1.8,1.9c0.4,0,0.7-0.1,1-0.2v2.6
			c-0.4,0.1-0.7,0.1-1,0.1c-0.3,0-0.6,0-1.1,0c-0.8,0-1.4-0.1-1.9-0.3c-0.5-0.2-0.9-0.5-1.1-0.9c-0.3-0.4-0.4-0.9-0.5-1.4
			c-0.1-0.5-0.1-1.2-0.1-1.8h-0.1c-0.6,0.8-1.1,1.6-1.7,2.2c-0.6,0.6-1.2,1.2-1.9,1.6c-0.7,0.4-1.5,0.8-2.4,1
			c-0.9,0.2-2,0.3-3.3,0.3c-1.2,0-2.3-0.1-3.4-0.4c-1-0.3-2-0.7-2.7-1.3c-0.8-0.6-1.4-1.4-1.8-2.3c-0.4-0.9-0.7-2.1-0.7-3.4
			c0-1.8,0.4-3.2,1.2-4.2c0.8-1,1.9-1.8,3.2-2.3c1.3-0.5,2.8-0.9,4.4-1.1c1.6-0.2,3.3-0.4,5-0.6c0.7-0.1,1.2-0.2,1.7-0.2
			c0.5-0.1,0.9-0.3,1.2-0.5c0.3-0.2,0.6-0.6,0.8-1c0.2-0.4,0.3-1,0.3-1.7c0-1.1-0.2-1.9-0.5-2.6c-0.3-0.7-0.8-1.2-1.4-1.6
			c-0.6-0.4-1.3-0.7-2.1-0.8c-0.8-0.1-1.7-0.2-2.6-0.2c-2,0-3.6,0.5-4.9,1.4c-1.3,0.9-1.9,2.5-2,4.6h-3.1
			C440.3,420.7,440.6,419.4,441.1,418.3z M456.8,426c-0.2,0.4-0.6,0.6-1.1,0.8c-0.6,0.2-1.1,0.3-1.5,0.3c-1.3,0.2-2.7,0.4-4.1,0.6
			c-1.4,0.2-2.7,0.5-3.9,0.8c-1.2,0.4-2.1,0.9-2.9,1.6c-0.7,0.7-1.1,1.7-1.1,2.9c0,0.8,0.2,1.5,0.5,2.1c0.3,0.6,0.7,1.1,1.3,1.6
			c0.5,0.4,1.1,0.8,1.8,1c0.7,0.2,1.4,0.3,2.1,0.3c1.2,0,2.3-0.2,3.4-0.5c1.1-0.4,2.1-0.9,2.9-1.6c0.8-0.7,1.5-1.5,1.9-2.5
			c0.5-1,0.7-2.1,0.7-3.4L456.8,426L456.8,426z"/>
		<path d="M486.6,440v-4.9h-0.1c-0.3,0.8-0.8,1.6-1.5,2.3c-0.6,0.7-1.4,1.3-2.2,1.8c-0.8,0.5-1.7,0.9-2.7,1.1
			c-0.9,0.3-1.9,0.4-2.8,0.4c-2,0-3.7-0.4-5.1-1.1c-1.4-0.7-2.7-1.7-3.6-2.9c-1-1.2-1.7-2.7-2.1-4.3c-0.5-1.6-0.7-3.4-0.7-5.2
			c0-1.8,0.2-3.6,0.7-5.2c0.5-1.6,1.2-3.1,2.1-4.3c1-1.2,2.2-2.2,3.6-3c1.4-0.7,3.1-1.1,5.1-1.1c1,0,1.9,0.1,2.8,0.3
			c0.9,0.2,1.8,0.6,2.6,1.1c0.8,0.5,1.5,1.1,2.1,1.8c0.6,0.7,1.1,1.5,1.4,2.4h0.1v-14.8h3.1V440H486.6z M469.4,431.1
			c0.3,1.3,0.8,2.5,1.5,3.5c0.7,1,1.6,1.9,2.6,2.5c1.1,0.6,2.3,1,3.8,1c1.7,0,3.1-0.3,4.2-1c1.1-0.6,2.1-1.5,2.8-2.5
			c0.7-1,1.2-2.2,1.5-3.5c0.3-1.3,0.5-2.6,0.5-4s-0.2-2.7-0.5-4c-0.3-1.3-0.8-2.5-1.5-3.5c-0.7-1-1.6-1.9-2.8-2.5
			c-1.1-0.6-2.6-1-4.2-1c-1.5,0-2.8,0.3-3.8,1c-1.1,0.6-1.9,1.5-2.6,2.5c-0.7,1-1.2,2.2-1.5,3.5c-0.3,1.3-0.5,2.6-0.5,4
			S469,429.8,469.4,431.1z"/>
		<path d="M512.1,414.7c1.5,0.7,2.8,1.7,3.8,2.9c1,1.2,1.8,2.7,2.3,4.3c0.5,1.6,0.8,3.4,0.8,5.3s-0.3,3.6-0.8,5.3
			c-0.5,1.6-1.3,3.1-2.3,4.3c-1,1.2-2.3,2.2-3.8,2.9c-1.5,0.7-3.3,1.1-5.2,1.1c-2,0-3.7-0.4-5.2-1.1c-1.5-0.7-2.8-1.7-3.8-2.9
			c-1-1.2-1.8-2.7-2.3-4.3c-0.5-1.6-0.8-3.4-0.8-5.3s0.3-3.6,0.8-5.3c0.5-1.6,1.3-3.1,2.3-4.3c1-1.2,2.3-2.2,3.8-2.9
			c1.5-0.7,3.2-1.1,5.2-1.1C508.8,413.6,510.5,413.9,512.1,414.7z M502.9,417.2c-1.1,0.6-2.1,1.5-2.8,2.5c-0.7,1-1.3,2.2-1.7,3.5
			c-0.4,1.3-0.6,2.7-0.6,4s0.2,2.7,0.6,4c0.4,1.3,0.9,2.5,1.7,3.5c0.7,1,1.7,1.9,2.8,2.5c1.1,0.6,2.4,0.9,3.9,0.9
			c1.5,0,2.8-0.3,3.9-0.9c1.1-0.6,2.1-1.5,2.8-2.5c0.7-1,1.3-2.2,1.7-3.5c0.4-1.3,0.6-2.7,0.6-4s-0.2-2.7-0.6-4
			c-0.4-1.3-0.9-2.5-1.7-3.5c-0.7-1-1.7-1.9-2.8-2.5c-1.1-0.6-2.4-0.9-3.9-0.9C505.3,416.2,504,416.5,502.9,417.2z"/>
		<path d="M555.8,404.4c1.7,0,3.2,0.1,4.6,0.4c1.4,0.3,2.6,0.8,3.6,1.5c1,0.7,1.8,1.6,2.3,2.7c0.5,1.1,0.8,2.5,0.8,4.2
			c0,1.8-0.4,3.3-1.2,4.5c-0.8,1.2-2,2.2-3.6,2.9c2.2,0.6,3.8,1.7,4.9,3.3c1.1,1.6,1.6,3.5,1.6,5.7c0,1.8-0.3,3.3-1,4.7
			c-0.7,1.3-1.6,2.4-2.8,3.2c-1.2,0.8-2.5,1.4-4,1.8c-1.5,0.4-3.1,0.6-4.7,0.6H539v-35.6H555.8z M554.8,418.9c1.4,0,2.5-0.3,3.4-1
			c0.9-0.7,1.3-1.7,1.3-3.2c0-0.8-0.1-1.5-0.4-2c-0.3-0.5-0.7-0.9-1.2-1.2c-0.5-0.3-1.1-0.5-1.7-0.6c-0.6-0.1-1.3-0.2-2-0.2h-7.3
			v8.3H554.8z M555.2,434c0.8,0,1.5-0.1,2.2-0.2c0.7-0.1,1.3-0.4,1.8-0.7c0.5-0.3,1-0.8,1.3-1.4c0.3-0.6,0.5-1.4,0.5-2.3
			c0-1.8-0.5-3.1-1.5-3.9c-1-0.8-2.4-1.2-4.1-1.2h-8.5v9.8H555.2z"/>
		<path d="M574,421.6c0.6-1.7,1.5-3.1,2.7-4.3c1.2-1.2,2.6-2.1,4.2-2.7c1.6-0.6,3.5-1,5.5-1c2,0,3.9,0.3,5.5,1
			c1.6,0.6,3.1,1.6,4.2,2.7c1.2,1.2,2.1,2.6,2.7,4.3c0.6,1.7,0.9,3.5,0.9,5.6s-0.3,3.9-0.9,5.6c-0.6,1.7-1.5,3.1-2.7,4.3
			c-1.2,1.2-2.6,2.1-4.2,2.7c-1.6,0.6-3.5,0.9-5.5,0.9c-2,0-3.9-0.3-5.5-0.9c-1.6-0.6-3-1.5-4.2-2.7c-1.2-1.2-2.1-2.6-2.7-4.3
			c-0.6-1.7-0.9-3.5-0.9-5.6S573.4,423.2,574,421.6z M580.5,430.2c0.2,1,0.5,1.9,1,2.6c0.5,0.8,1.1,1.4,1.9,1.9
			c0.8,0.5,1.8,0.7,3,0.7c1.2,0,2.2-0.2,3-0.7c0.8-0.5,1.5-1.1,1.9-1.9c0.5-0.8,0.8-1.7,1-2.6c0.2-1,0.3-2,0.3-3c0-1-0.1-2-0.3-3
			c-0.2-1-0.5-1.9-1-2.6c-0.5-0.8-1.1-1.4-1.9-1.9c-0.8-0.5-1.8-0.7-3-0.7c-1.2,0-2.2,0.2-3,0.7c-0.8,0.5-1.4,1.1-1.9,1.9
			c-0.5,0.8-0.8,1.6-1,2.6c-0.2,1-0.3,2-0.3,3C580.2,428.2,580.3,429.2,580.5,430.2z"/>
		<path d="M622.3,440v-3.6h-0.1c-0.9,1.5-2.1,2.6-3.5,3.2c-1.4,0.7-2.9,1-4.4,1c-1.9,0-3.5-0.2-4.7-0.7c-1.2-0.5-2.2-1.2-2.9-2.1
			c-0.7-0.9-1.2-2-1.5-3.3c-0.3-1.3-0.4-2.8-0.4-4.4v-15.9h7.1v14.6c0,2.1,0.3,3.7,1,4.8c0.7,1,1.8,1.6,3.5,1.6
			c1.9,0,3.3-0.6,4.2-1.7c0.9-1.1,1.3-3,1.3-5.7v-13.5h7.1V440H622.3z"/>
		<path d="M642.2,404.4V440h-7.1v-35.6H642.2z"/>
		<path d="M666.6,436.8c-0.8,1.4-1.9,2.4-3.3,3c-1.3,0.6-2.9,0.9-4.6,0.9c-1.9,0-3.6-0.4-5.1-1.1c-1.5-0.7-2.7-1.8-3.6-3
			c-0.9-1.3-1.7-2.8-2.1-4.4c-0.5-1.7-0.7-3.4-0.7-5.2c0-1.7,0.2-3.4,0.7-5c0.5-1.6,1.2-3,2.1-4.3c0.9-1.2,2.1-2.2,3.6-3
			c1.4-0.7,3.1-1.1,5-1.1c1.5,0,3,0.3,4.4,1c1.4,0.6,2.5,1.6,3.3,2.9h0.1v-13h7.1V440h-6.7L666.6,436.8L666.6,436.8z M666.3,424
			c-0.2-1-0.5-1.8-1-2.6c-0.5-0.7-1.1-1.4-1.9-1.8c-0.8-0.5-1.7-0.7-2.9-0.7c-1.2,0-2.1,0.2-2.9,0.7c-0.8,0.5-1.4,1.1-1.9,1.8
			c-0.5,0.8-0.8,1.6-1,2.6c-0.2,1-0.3,2-0.3,3.1c0,1,0.1,2,0.3,3c0.2,1,0.6,1.9,1.1,2.7c0.5,0.8,1.2,1.4,1.9,1.9
			c0.8,0.5,1.7,0.7,2.8,0.7c1.2,0,2.1-0.2,2.9-0.7c0.8-0.5,1.4-1.1,1.9-1.9c0.5-0.8,0.8-1.7,1-2.7c0.2-1,0.3-2,0.3-3.1
			C666.6,426,666.5,425,666.3,424z"/>
		<path d="M686.8,433.9c1.1,1,2.6,1.5,4.6,1.5c1.4,0,2.7-0.4,3.7-1.1c1-0.7,1.7-1.5,1.9-2.3h6.2c-1,3.1-2.5,5.3-4.6,6.6
			c-2.1,1.3-4.6,2-7.5,2c-2,0-3.9-0.3-5.5-1c-1.6-0.6-3-1.6-4.1-2.8c-1.1-1.2-2-2.6-2.6-4.3c-0.6-1.7-0.9-3.5-0.9-5.5
			c0-1.9,0.3-3.7,0.9-5.4c0.6-1.7,1.5-3.1,2.7-4.3c1.2-1.2,2.6-2.2,4.2-2.9c1.6-0.7,3.4-1,5.4-1c2.2,0,4.1,0.4,5.7,1.3
			c1.6,0.8,3,2,4,3.4c1,1.4,1.8,3.1,2.3,4.9c0.5,1.8,0.6,3.7,0.5,5.7h-18.6C685.2,431.2,685.8,432.8,686.8,433.9z M694.8,420.3
			c-0.8-0.9-2.1-1.4-3.9-1.4c-1.1,0-2.1,0.2-2.8,0.6c-0.7,0.4-1.3,0.9-1.8,1.4c-0.4,0.6-0.8,1.2-0.9,1.8c-0.2,0.6-0.3,1.2-0.3,1.7
			h11.5C696.3,422.6,695.7,421.2,694.8,420.3z"/>
		<path d="M715.1,414.3v4.8h0.1c0.3-0.8,0.8-1.5,1.3-2.2c0.6-0.7,1.2-1.3,1.9-1.7c0.7-0.5,1.5-0.9,2.3-1.1c0.8-0.3,1.7-0.4,2.6-0.4
			c0.5,0,1,0.1,1.5,0.2v6.6c-0.3-0.1-0.7-0.1-1.2-0.2c-0.5,0-0.9-0.1-1.3-0.1c-1.3,0-2.4,0.2-3.3,0.6c-0.9,0.4-1.6,1-2.2,1.8
			c-0.5,0.7-0.9,1.6-1.2,2.6c-0.2,1-0.3,2.1-0.3,3.2V440h-7.1v-25.8H715.1z"/>
	</g>
	<g>
		<path d="M45.8,328.1v42.1h25.7v3.7h-30v-45.8H45.8z"/>
		<path d="M77.2,345.9c0.7-1.4,1.6-2.6,2.8-3.5c1.2-0.9,2.6-1.6,4.1-2c1.6-0.4,3.3-0.6,5.3-0.6c1.5,0,2.9,0.1,4.4,0.4
			c1.5,0.3,2.8,0.8,3.9,1.6c1.2,0.8,2.1,1.9,2.8,3.2c0.7,1.4,1.1,3.2,1.1,5.4v17.6c0,1.6,0.8,2.4,2.4,2.4c0.5,0,0.9-0.1,1.3-0.3v3.4
			c-0.5,0.1-0.9,0.2-1.3,0.2c-0.4,0-0.8,0.1-1.4,0.1c-1,0-1.9-0.1-2.5-0.4c-0.6-0.3-1.1-0.7-1.4-1.2c-0.3-0.5-0.6-1.1-0.7-1.8
			c-0.1-0.7-0.2-1.5-0.2-2.3h-0.1c-0.7,1.1-1.5,2-2.2,2.9c-0.7,0.8-1.6,1.5-2.5,2.1c-0.9,0.6-2,1-3.1,1.3c-1.2,0.3-2.6,0.4-4.2,0.4
			c-1.5,0-3-0.2-4.3-0.5c-1.3-0.4-2.5-0.9-3.5-1.7c-1-0.8-1.8-1.8-2.4-3c-0.6-1.2-0.9-2.7-0.9-4.3c0-2.3,0.5-4.1,1.5-5.4
			c1-1.3,2.4-2.3,4.1-3c1.7-0.7,3.6-1.2,5.7-1.4c2.1-0.3,4.3-0.5,6.5-0.8c0.9-0.1,1.6-0.2,2.2-0.3c0.6-0.1,1.2-0.4,1.6-0.7
			c0.4-0.3,0.8-0.8,1-1.3c0.2-0.6,0.4-1.3,0.4-2.2c0-1.4-0.2-2.5-0.7-3.4c-0.4-0.9-1.1-1.6-1.9-2.1c-0.8-0.5-1.7-0.9-2.8-1.1
			c-1-0.2-2.2-0.3-3.4-0.3c-2.6,0-4.7,0.6-6.3,1.8c-1.6,1.2-2.5,3.2-2.6,5.9h-4C76.1,349,76.5,347.4,77.2,345.9z M97.5,355.8
			c-0.3,0.5-0.7,0.8-1.5,1c-0.7,0.2-1.4,0.4-1.9,0.4c-1.7,0.3-3.5,0.6-5.3,0.8c-1.8,0.2-3.5,0.6-5,1.1c-1.5,0.5-2.7,1.1-3.7,2
			c-1,0.9-1.4,2.1-1.4,3.8c0,1,0.2,1.9,0.6,2.7c0.4,0.8,1,1.5,1.6,2.1c0.7,0.6,1.5,1,2.4,1.3c0.9,0.3,1.8,0.5,2.8,0.5
			c1.5,0,3-0.2,4.4-0.7c1.4-0.5,2.6-1.2,3.7-2.1c1-0.9,1.9-2,2.5-3.3c0.6-1.3,0.9-2.7,0.9-4.4v-5.3H97.5z"/>
		<path d="M115,328.1v19h0.1c0.4-1.2,1-2.2,1.8-3.1c0.8-0.9,1.7-1.7,2.7-2.3c1-0.6,2.1-1.1,3.3-1.4c1.2-0.3,2.4-0.5,3.6-0.5
			c2.5,0,4.7,0.5,6.6,1.4c1.9,0.9,3.4,2.2,4.7,3.8c1.2,1.6,2.2,3.5,2.8,5.6c0.6,2.1,0.9,4.4,0.9,6.7c0,2.4-0.3,4.6-0.9,6.7
			c-0.6,2.1-1.5,4-2.8,5.6c-1.2,1.6-2.8,2.9-4.7,3.8c-1.9,0.9-4.1,1.4-6.6,1.4c-2.7,0-5.1-0.6-7.2-1.9c-2.1-1.2-3.6-3-4.6-5.3h-0.1
			v6.3H111v-45.8H115z M136.9,352.3c-0.4-1.7-1-3.2-1.9-4.5c-0.9-1.3-2-2.4-3.4-3.2c-1.4-0.8-3-1.3-4.9-1.3c-2.1,0-3.9,0.4-5.4,1.3
			c-1.5,0.8-2.7,1.9-3.6,3.2c-0.9,1.3-1.6,2.8-2,4.5c-0.4,1.7-0.6,3.4-0.6,5.1c0,1.7,0.2,3.4,0.6,5.1c0.4,1.7,1.1,3.2,2,4.5
			c0.9,1.3,2.1,2.4,3.6,3.2c1.5,0.8,3.3,1.3,5.4,1.3c1.9,0,3.6-0.4,4.9-1.3c1.4-0.8,2.5-1.9,3.4-3.2c0.9-1.3,1.5-2.8,1.9-4.5
			c0.4-1.7,0.6-3.4,0.6-5.1C137.5,355.7,137.3,354,136.9,352.3z"/>
		<path d="M169.8,341.3c1.9,0.9,3.6,2.2,4.9,3.8c1.3,1.6,2.3,3.4,3,5.6c0.7,2.1,1,4.4,1,6.8c0,2.4-0.3,4.7-1,6.8
			c-0.7,2.1-1.7,4-3,5.6c-1.3,1.6-3,2.8-4.9,3.8c-1.9,0.9-4.2,1.4-6.7,1.4c-2.5,0-4.8-0.5-6.7-1.4c-1.9-0.9-3.6-2.2-4.9-3.8
			c-1.3-1.6-2.3-3.4-3-5.6c-0.7-2.1-1-4.4-1-6.8c0-2.4,0.3-4.7,1-6.8c0.7-2.1,1.7-4,3-5.6c1.3-1.6,3-2.8,4.9-3.8
			c1.9-0.9,4.2-1.4,6.7-1.4C165.7,339.8,167.9,340.3,169.8,341.3z M158.1,344.5c-1.5,0.8-2.7,1.9-3.6,3.2c-1,1.3-1.7,2.8-2.2,4.5
			c-0.5,1.7-0.7,3.4-0.7,5.2c0,1.8,0.2,3.5,0.7,5.2c0.5,1.7,1.2,3.2,2.2,4.5c1,1.3,2.2,2.4,3.6,3.2c1.5,0.8,3.1,1.2,5.1,1.2
			c1.9,0,3.6-0.4,5.1-1.2c1.5-0.8,2.7-1.9,3.6-3.2c1-1.3,1.7-2.8,2.2-4.5c0.5-1.7,0.7-3.4,0.7-5.2c0-1.8-0.2-3.5-0.7-5.2
			c-0.5-1.7-1.2-3.2-2.2-4.5c-1-1.3-2.2-2.4-3.6-3.2c-1.5-0.8-3.1-1.2-5.1-1.2C161.2,343.2,159.5,343.7,158.1,344.5z"/>
		<path d="M189.8,340.8v7.8h0.1c1-2.7,2.6-4.8,4.8-6.2c2.2-1.5,4.7-2.1,7.7-2v4c-1.8-0.1-3.5,0.2-5,0.7c-1.5,0.6-2.8,1.4-3.9,2.5
			c-1.1,1.1-1.9,2.3-2.5,3.8c-0.6,1.5-0.9,3.1-0.9,4.8v17.7h-4v-33.1H189.8z"/>
		<path d="M208.5,345.9c0.7-1.4,1.6-2.6,2.8-3.5c1.2-0.9,2.6-1.6,4.1-2c1.6-0.4,3.3-0.6,5.3-0.6c1.5,0,2.9,0.1,4.4,0.4
			c1.5,0.3,2.8,0.8,3.9,1.6c1.2,0.8,2.1,1.9,2.8,3.2c0.7,1.4,1.1,3.2,1.1,5.4v17.6c0,1.6,0.8,2.4,2.4,2.4c0.5,0,0.9-0.1,1.3-0.3v3.4
			c-0.5,0.1-0.9,0.2-1.3,0.2c-0.4,0-0.8,0.1-1.4,0.1c-1,0-1.9-0.1-2.5-0.4c-0.6-0.3-1.1-0.7-1.4-1.2c-0.3-0.5-0.6-1.1-0.7-1.8
			c-0.1-0.7-0.2-1.5-0.2-2.3H229c-0.7,1.1-1.5,2-2.2,2.9c-0.7,0.8-1.6,1.5-2.5,2.1c-0.9,0.6-2,1-3.1,1.3c-1.2,0.3-2.6,0.4-4.2,0.4
			c-1.5,0-3-0.2-4.3-0.5c-1.3-0.4-2.5-0.9-3.5-1.7c-1-0.8-1.8-1.8-2.4-3c-0.6-1.2-0.9-2.7-0.9-4.3c0-2.3,0.5-4.1,1.5-5.4
			c1-1.3,2.4-2.3,4.1-3c1.7-0.7,3.6-1.2,5.7-1.4c2.1-0.3,4.3-0.5,6.5-0.8c0.9-0.1,1.6-0.2,2.2-0.3c0.6-0.1,1.2-0.4,1.6-0.7
			c0.4-0.3,0.8-0.8,1-1.3c0.2-0.6,0.4-1.3,0.4-2.2c0-1.4-0.2-2.5-0.7-3.4c-0.4-0.9-1.1-1.6-1.9-2.1c-0.8-0.5-1.7-0.9-2.8-1.1
			c-1-0.2-2.2-0.3-3.4-0.3c-2.6,0-4.7,0.6-6.3,1.8c-1.6,1.2-2.5,3.2-2.6,5.9h-4C207.4,349,207.8,347.4,208.5,345.9z M228.7,355.8
			c-0.3,0.5-0.7,0.8-1.5,1c-0.7,0.2-1.4,0.4-1.9,0.4c-1.7,0.3-3.5,0.6-5.3,0.8c-1.8,0.2-3.5,0.6-5,1.1c-1.5,0.5-2.7,1.1-3.7,2
			c-1,0.9-1.4,2.1-1.4,3.8c0,1,0.2,1.9,0.6,2.7c0.4,0.8,1,1.5,1.6,2.1c0.7,0.6,1.5,1,2.4,1.3c0.9,0.3,1.8,0.5,2.8,0.5
			c1.5,0,3-0.2,4.4-0.7c1.4-0.5,2.6-1.2,3.7-2.1c1-0.9,1.9-2,2.5-3.3c0.6-1.3,0.9-2.7,0.9-4.4v-5.3H228.7z"/>
		<path d="M255.4,340.8v3.4h-6.7v22.3c0,1.3,0.2,2.4,0.5,3.1c0.4,0.7,1.3,1.2,2.7,1.3c1.2,0,2.3-0.1,3.5-0.2v3.4
			c-0.6,0-1.2,0-1.8,0.1c-0.6,0-1.2,0.1-1.8,0.1c-2.7,0-4.6-0.5-5.6-1.6c-1.1-1-1.6-3-1.5-5.8v-22.7h-5.8v-3.4h5.8v-10h4v10H255.4z"
			/>
		<path d="M283.2,341.3c1.9,0.9,3.6,2.2,4.9,3.8c1.3,1.6,2.3,3.4,3,5.6c0.7,2.1,1,4.4,1,6.8c0,2.4-0.3,4.7-1,6.8
			c-0.7,2.1-1.7,4-3,5.6c-1.3,1.6-3,2.8-4.9,3.8c-1.9,0.9-4.2,1.4-6.7,1.4c-2.5,0-4.8-0.5-6.7-1.4c-1.9-0.9-3.6-2.2-4.9-3.8
			c-1.3-1.6-2.3-3.4-3-5.6c-0.7-2.1-1-4.4-1-6.8c0-2.4,0.3-4.7,1-6.8c0.7-2.1,1.7-4,3-5.6c1.3-1.6,3-2.8,4.9-3.8
			c1.9-0.9,4.2-1.4,6.7-1.4C279,339.8,281.3,340.3,283.2,341.3z M271.4,344.5c-1.5,0.8-2.7,1.9-3.6,3.2c-1,1.3-1.7,2.8-2.2,4.5
			c-0.5,1.7-0.7,3.4-0.7,5.2c0,1.8,0.2,3.5,0.7,5.2c0.5,1.7,1.2,3.2,2.2,4.5c1,1.3,2.2,2.4,3.6,3.2c1.5,0.8,3.1,1.2,5.1,1.2
			c1.9,0,3.6-0.4,5.1-1.2c1.5-0.8,2.7-1.9,3.6-3.2c1-1.3,1.7-2.8,2.2-4.5c0.5-1.7,0.7-3.4,0.7-5.2c0-1.8-0.2-3.5-0.7-5.2
			c-0.5-1.7-1.2-3.2-2.2-4.5c-1-1.3-2.2-2.4-3.6-3.2c-1.5-0.8-3.1-1.2-5.1-1.2C274.6,343.2,272.9,343.7,271.4,344.5z"/>
		<path d="M303.2,340.8v7.8h0.1c1-2.7,2.6-4.8,4.8-6.2c2.2-1.5,4.7-2.1,7.7-2v4c-1.8-0.1-3.5,0.2-5,0.7c-1.5,0.6-2.8,1.4-3.9,2.5
			c-1.1,1.1-1.9,2.3-2.5,3.8c-0.6,1.5-0.9,3.1-0.9,4.8v17.7h-4v-33.1H303.2z"/>
		<path d="M321.6,340.8l10.9,28.2l10.2-28.2h4l-14.4,38.1c-0.6,1.4-1.2,2.6-1.7,3.5c-0.5,0.9-1.1,1.6-1.7,2.2
			c-0.6,0.5-1.3,0.9-2.2,1.2c-0.8,0.2-1.9,0.4-3.2,0.4c-0.8,0-1.4-0.1-1.9-0.1c-0.4,0-0.8-0.1-1.2-0.2v-3.4c0.5,0.1,0.9,0.2,1.4,0.2
			c0.4,0.1,0.9,0.1,1.4,0.1c0.9,0,1.6-0.1,2.2-0.4c0.6-0.3,1.1-0.6,1.5-1.1c0.4-0.4,0.8-1,1.1-1.6c0.3-0.6,0.6-1.3,1-2.1l1.4-3.7
			l-13.2-33H321.6z"/>
		<path d="M377.4,344.2v29.7h-4v-29.7h-5.6v-3.4h5.6v-3c0-1.4,0.1-2.7,0.3-3.9c0.2-1.2,0.6-2.2,1.2-3.1c0.6-0.9,1.4-1.5,2.5-2
			c1-0.5,2.4-0.7,4-0.7c0.6,0,1.2,0,1.7,0.1c0.5,0,1.1,0.1,1.7,0.2v3.5c-0.6-0.1-1.1-0.2-1.5-0.2c-0.5-0.1-0.9-0.1-1.4-0.1
			c-1.1,0-2,0.2-2.6,0.5c-0.6,0.3-1,0.8-1.3,1.4c-0.3,0.6-0.4,1.3-0.5,2c0,0.8-0.1,1.6-0.1,2.5v2.9h6.5v3.4H377.4z"/>
		<path d="M409.8,341.3c1.9,0.9,3.6,2.2,4.9,3.8c1.3,1.6,2.3,3.4,3,5.6c0.7,2.1,1,4.4,1,6.8c0,2.4-0.3,4.7-1,6.8
			c-0.7,2.1-1.7,4-3,5.6c-1.3,1.6-3,2.8-4.9,3.8c-1.9,0.9-4.2,1.4-6.7,1.4c-2.5,0-4.8-0.5-6.7-1.4c-1.9-0.9-3.6-2.2-4.9-3.8
			c-1.3-1.6-2.3-3.4-3-5.6c-0.7-2.1-1-4.4-1-6.8c0-2.4,0.3-4.7,1-6.8c0.7-2.1,1.7-4,3-5.6c1.3-1.6,3-2.8,4.9-3.8
			c1.9-0.9,4.2-1.4,6.7-1.4C405.6,339.8,407.8,340.3,409.8,341.3z M398,344.5c-1.5,0.8-2.7,1.9-3.6,3.2c-1,1.3-1.7,2.8-2.2,4.5
			c-0.5,1.7-0.7,3.4-0.7,5.2c0,1.8,0.2,3.5,0.7,5.2c0.5,1.7,1.2,3.2,2.2,4.5c1,1.3,2.2,2.4,3.6,3.2c1.5,0.8,3.1,1.2,5.1,1.2
			c1.9,0,3.6-0.4,5.1-1.2c1.5-0.8,2.7-1.9,3.6-3.2c1-1.3,1.7-2.8,2.2-4.5c0.5-1.7,0.7-3.4,0.7-5.2c0-1.8-0.2-3.5-0.7-5.2
			c-0.5-1.7-1.2-3.2-2.2-4.5c-1-1.3-2.2-2.4-3.6-3.2c-1.5-0.8-3.1-1.2-5.1-1.2C401.1,343.2,399.4,343.7,398,344.5z"/>
		<path d="M429.8,340.8v7.8h0.1c1-2.7,2.6-4.8,4.8-6.2c2.2-1.5,4.7-2.1,7.7-2v4c-1.8-0.1-3.5,0.2-5,0.7c-1.5,0.6-2.8,1.4-3.9,2.5
			c-1.1,1.1-1.9,2.3-2.5,3.8c-0.6,1.5-0.9,3.1-0.9,4.8v17.7h-4v-33.1H429.8z"/>
		<path d="M485.7,328.1l18,45.8H499l-5.6-14.3h-20.9l-5.5,14.3h-4.6l18.4-45.8H485.7z M492,356l-8.9-23.5l-9.2,23.5H492z"/>
		<path d="M521.6,340.8v3.4h-6.7v22.3c0,1.3,0.2,2.4,0.5,3.1c0.4,0.7,1.3,1.2,2.7,1.3c1.2,0,2.3-0.1,3.5-0.2v3.4
			c-0.6,0-1.2,0-1.8,0.1c-0.6,0-1.2,0.1-1.8,0.1c-2.7,0-4.6-0.5-5.6-1.6c-1.1-1-1.6-3-1.5-5.8v-22.7H505v-3.4h5.8v-10h4v10H521.6z"
			/>
		<path d="M532.4,340.8v5.6h0.2c1.1-2.1,2.5-3.7,4.2-4.8c1.7-1.2,3.9-1.7,6.6-1.7c2.2,0,4.2,0.5,5.9,1.6c1.8,1.1,3,2.7,3.6,4.9
			c1-2.2,2.4-3.8,4.4-4.9c1.9-1.1,4-1.6,6.2-1.6c7.3,0,11,3.9,11,11.6v22.5h-4v-22.3c0-2.7-0.6-4.8-1.7-6.3
			c-1.2-1.4-3.2-2.2-6.1-2.2c-1.8,0-3.2,0.3-4.4,1c-1.2,0.7-2.1,1.6-2.8,2.7c-0.7,1.1-1.2,2.4-1.4,3.8c-0.3,1.4-0.4,2.9-0.4,4.5
			v18.7h-4v-22.5c0-1.1-0.1-2.2-0.4-3.2c-0.2-1-0.6-1.9-1.2-2.6c-0.5-0.7-1.3-1.3-2.2-1.8c-0.9-0.4-2-0.6-3.3-0.6
			c-1.7,0-3.2,0.3-4.5,0.9c-1.3,0.6-2.3,1.5-3.1,2.6c-0.8,1.1-1.4,2.4-1.8,3.9c-0.4,1.5-0.6,3.1-0.6,4.8v18.5h-4v-33.1H532.4z"/>
		<path d="M604.2,341.3c1.9,0.9,3.6,2.2,4.9,3.8c1.3,1.6,2.3,3.4,3,5.6c0.7,2.1,1,4.4,1,6.8c0,2.4-0.3,4.7-1,6.8
			c-0.7,2.1-1.7,4-3,5.6c-1.3,1.6-3,2.8-4.9,3.8c-1.9,0.9-4.2,1.4-6.7,1.4c-2.5,0-4.8-0.5-6.7-1.4c-1.9-0.9-3.6-2.2-4.9-3.8
			c-1.3-1.6-2.3-3.4-3-5.6c-0.7-2.1-1-4.4-1-6.8c0-2.4,0.3-4.7,1-6.8c0.7-2.1,1.7-4,3-5.6c1.3-1.6,3-2.8,4.9-3.8
			c1.9-0.9,4.2-1.4,6.7-1.4C600,339.8,602.2,340.3,604.2,341.3z M592.4,344.5c-1.5,0.8-2.7,1.9-3.6,3.2c-1,1.3-1.7,2.8-2.2,4.5
			c-0.5,1.7-0.7,3.4-0.7,5.2c0,1.8,0.2,3.5,0.7,5.2c0.5,1.7,1.2,3.2,2.2,4.5c1,1.3,2.2,2.4,3.6,3.2c1.5,0.8,3.1,1.2,5.1,1.2
			c1.9,0,3.6-0.4,5.1-1.2c1.5-0.8,2.7-1.9,3.6-3.2c1-1.3,1.7-2.8,2.2-4.5c0.5-1.7,0.7-3.4,0.7-5.2c0-1.8-0.2-3.5-0.7-5.2
			c-0.5-1.7-1.2-3.2-2.2-4.5c-1-1.3-2.2-2.4-3.6-3.2c-1.5-0.8-3.1-1.2-5.1-1.2C595.5,343.2,593.8,343.7,592.4,344.5z"/>
		<path d="M639.5,347.3c-0.5-0.9-1.1-1.7-1.9-2.3c-0.8-0.6-1.7-1-2.7-1.3c-1-0.3-2.1-0.4-3.3-0.4c-0.9,0-1.8,0.1-2.7,0.3
			c-0.9,0.2-1.8,0.5-2.5,1c-0.8,0.4-1.4,1-1.9,1.8c-0.5,0.7-0.7,1.6-0.7,2.7c0,0.9,0.2,1.7,0.7,2.3c0.4,0.6,1,1.1,1.7,1.6
			c0.7,0.4,1.4,0.8,2.2,1.1c0.8,0.3,1.6,0.5,2.2,0.7l5.4,1.2c1.2,0.2,2.3,0.5,3.4,0.9c1.1,0.5,2.1,1,3,1.8c0.9,0.7,1.6,1.6,2.2,2.7
			c0.6,1.1,0.8,2.3,0.8,3.8c0,1.8-0.4,3.3-1.2,4.6c-0.8,1.3-1.9,2.3-3.1,3.1c-1.3,0.8-2.7,1.4-4.3,1.7c-1.6,0.3-3.1,0.5-4.7,0.5
			c-3.9,0-7.1-0.9-9.5-2.8c-2.4-1.8-3.8-4.8-4.1-8.9h4c0.2,2.7,1.2,4.8,3,6.2c1.8,1.4,4.1,2.1,6.8,2.1c1,0,2-0.1,3-0.3
			c1-0.2,2-0.6,2.9-1.1c0.9-0.5,1.6-1.2,2.2-2c0.6-0.8,0.9-1.8,0.9-2.9c0-1-0.2-1.8-0.6-2.5c-0.4-0.7-1-1.2-1.6-1.7
			c-0.7-0.4-1.5-0.8-2.3-1.1c-0.9-0.3-1.8-0.6-2.7-0.8L629,358c-1.3-0.3-2.5-0.7-3.7-1.2c-1.1-0.4-2.1-1-2.9-1.7
			c-0.8-0.7-1.5-1.5-2-2.4c-0.5-1-0.7-2.2-0.7-3.6c0-1.7,0.4-3.1,1.1-4.3c0.7-1.2,1.7-2.2,2.9-2.9c1.2-0.7,2.5-1.3,4-1.6
			c1.5-0.3,2.9-0.5,4.4-0.5c1.7,0,3.2,0.2,4.7,0.6c1.4,0.4,2.7,1.1,3.8,2c1.1,0.9,2,2,2.6,3.3c0.6,1.3,1,2.9,1.1,4.7h-4
			C640.2,349.3,640,348.2,639.5,347.3z"/>
		<path d="M656.3,340.8v6.3h0.1c0.9-2.3,2.5-4.1,4.6-5.4c2.1-1.3,4.5-1.9,7.2-1.9c2.5,0,4.7,0.5,6.6,1.4c1.9,0.9,3.4,2.2,4.7,3.8
			c1.2,1.6,2.2,3.5,2.8,5.6c0.6,2.1,0.9,4.4,0.9,6.7c0,2.4-0.3,4.6-0.9,6.7c-0.6,2.1-1.5,4-2.8,5.6c-1.2,1.6-2.8,2.9-4.7,3.8
			c-1.9,0.9-4.1,1.4-6.6,1.4c-1.2,0-2.4-0.2-3.6-0.4c-1.2-0.3-2.3-0.7-3.3-1.3c-1-0.6-1.9-1.3-2.7-2.2c-0.8-0.9-1.4-1.9-1.8-3.1
			h-0.1v18.5h-4v-45.3H656.3z M678.5,352.3c-0.4-1.7-1-3.2-1.9-4.5c-0.9-1.3-2-2.4-3.4-3.2c-1.4-0.8-3-1.3-4.9-1.3
			c-2.2,0-4.1,0.4-5.6,1.2c-1.5,0.8-2.7,1.8-3.6,3.1c-0.9,1.3-1.5,2.8-1.9,4.5c-0.4,1.7-0.5,3.5-0.5,5.4c0,1.7,0.2,3.4,0.6,5.1
			c0.4,1.7,1.1,3.2,2,4.5c0.9,1.3,2.1,2.4,3.6,3.2c1.5,0.8,3.3,1.3,5.4,1.3c1.9,0,3.6-0.4,4.9-1.3c1.4-0.8,2.5-1.9,3.4-3.2
			c0.9-1.3,1.5-2.8,1.9-4.5c0.4-1.7,0.6-3.4,0.6-5.1C679.1,355.7,678.9,354,678.5,352.3z"/>
		<path d="M694.7,328.1v18.4h0.1c0.8-2,2.1-3.6,4.1-4.8c2-1.2,4.1-1.8,6.5-1.8c2.3,0,4.2,0.3,5.8,0.9c1.6,0.6,2.8,1.4,3.8,2.5
			c0.9,1.1,1.6,2.4,2,4c0.4,1.6,0.6,3.4,0.6,5.3v21.3h-4v-20.7c0-1.4-0.1-2.7-0.4-3.9c-0.3-1.2-0.7-2.3-1.3-3.2
			c-0.6-0.9-1.5-1.6-2.6-2.1c-1.1-0.5-2.5-0.8-4.1-0.8c-1.6,0-3.1,0.3-4.3,0.9c-1.3,0.6-2.3,1.4-3.2,2.4c-0.9,1-1.6,2.2-2.1,3.6
			c-0.5,1.4-0.8,2.9-0.8,4.5v19.3h-4v-45.8H694.7z"/>
		<path d="M729.5,363c0.4,1.6,1.1,3,2,4.2c0.9,1.2,2,2.3,3.4,3.1c1.4,0.8,3,1.2,4.9,1.2c3,0,5.3-0.8,6.9-2.3
			c1.7-1.5,2.8-3.6,3.5-6.2h4c-0.9,3.8-2.4,6.7-4.7,8.7c-2.3,2.1-5.5,3.1-9.7,3.1c-2.6,0-4.9-0.5-6.8-1.4c-1.9-0.9-3.5-2.2-4.7-3.8
			c-1.2-1.6-2.1-3.5-2.7-5.6c-0.6-2.1-0.9-4.4-0.9-6.7c0-2.2,0.3-4.3,0.9-6.4c0.6-2.1,1.5-4,2.7-5.6c1.2-1.6,2.8-3,4.7-4
			c1.9-1,4.2-1.5,6.8-1.5c2.7,0,4.9,0.5,6.8,1.6c1.9,1.1,3.4,2.5,4.6,4.2c1.2,1.7,2,3.7,2.5,6c0.5,2.2,0.7,4.5,0.6,6.8h-25.5
			C728.9,359.9,729.1,361.4,729.5,363z M749.5,350.6c-0.5-1.4-1.2-2.7-2.1-3.8c-0.9-1.1-2-2-3.3-2.6c-1.3-0.7-2.7-1-4.4-1
			c-1.7,0-3.1,0.3-4.4,1c-1.3,0.7-2.4,1.5-3.3,2.6c-0.9,1.1-1.6,2.4-2.2,3.8c-0.5,1.4-0.9,2.9-1.1,4.4h21.4
			C750.3,353.5,750,352,749.5,350.6z"/>
		<path d="M764.8,340.8v7.8h0.1c1-2.7,2.6-4.8,4.8-6.2c2.2-1.5,4.7-2.1,7.7-2v4c-1.8-0.1-3.5,0.2-5,0.7c-1.5,0.6-2.8,1.4-3.9,2.5
			c-1.1,1.1-1.9,2.3-2.5,3.8c-0.6,1.5-0.9,3.1-0.9,4.8v17.7h-4v-33.1H764.8z"/>
		<path d="M786.7,328.1v6.5h-4v-6.5H786.7z M786.7,340.8v33.1h-4v-33.1H786.7z"/>
		<path d="M816.1,345.4c-1.5-1.4-3.6-2.1-6.3-2.1c-1.9,0-3.6,0.4-5.1,1.2c-1.5,0.8-2.7,1.9-3.6,3.2c-1,1.3-1.7,2.8-2.2,4.5
			c-0.5,1.7-0.7,3.4-0.7,5.2c0,1.8,0.2,3.5,0.7,5.2c0.5,1.7,1.2,3.2,2.2,4.5c1,1.3,2.2,2.4,3.6,3.2c1.5,0.8,3.1,1.2,5.1,1.2
			c1.2,0,2.4-0.2,3.5-0.7c1.1-0.5,2.1-1.1,3-2c0.9-0.8,1.6-1.8,2.1-3c0.6-1.2,0.9-2.4,1-3.8h4c-0.6,4-2,7.2-4.4,9.4
			c-2.4,2.2-5.5,3.4-9.2,3.4c-2.5,0-4.8-0.5-6.7-1.4c-1.9-0.9-3.6-2.2-4.9-3.8c-1.3-1.6-2.3-3.4-3-5.6c-0.7-2.1-1-4.4-1-6.8
			c0-2.4,0.3-4.7,1-6.8c0.7-2.1,1.7-4,3-5.6c1.3-1.6,3-2.8,4.9-3.8c1.9-0.9,4.2-1.4,6.7-1.4c3.6,0,6.6,0.9,9,2.8
			c2.5,1.9,3.9,4.7,4.4,8.5h-4C818.6,348.7,817.6,346.8,816.1,345.4z"/>
		<path d="M850.4,345.9c0.7-1.4,1.6-2.6,2.8-3.5c1.2-0.9,2.6-1.6,4.1-2c1.6-0.4,3.3-0.6,5.3-0.6c1.5,0,2.9,0.1,4.4,0.4
			c1.5,0.3,2.8,0.8,3.9,1.6c1.2,0.8,2.1,1.9,2.8,3.2c0.7,1.4,1.1,3.2,1.1,5.4v17.6c0,1.6,0.8,2.4,2.4,2.4c0.5,0,0.9-0.1,1.3-0.3v3.4
			c-0.5,0.1-0.9,0.2-1.3,0.2c-0.4,0-0.8,0.1-1.4,0.1c-1,0-1.9-0.1-2.5-0.4c-0.6-0.3-1.1-0.7-1.4-1.2c-0.3-0.5-0.6-1.1-0.7-1.8
			c-0.1-0.7-0.2-1.5-0.2-2.3h-0.1c-0.7,1.1-1.5,2-2.2,2.9c-0.7,0.8-1.6,1.5-2.5,2.1c-0.9,0.6-2,1-3.1,1.3c-1.2,0.3-2.6,0.4-4.2,0.4
			c-1.5,0-3-0.2-4.3-0.5c-1.3-0.4-2.5-0.9-3.5-1.7c-1-0.8-1.8-1.8-2.4-3c-0.6-1.2-0.9-2.7-0.9-4.3c0-2.3,0.5-4.1,1.5-5.4
			c1-1.3,2.4-2.3,4.1-3c1.7-0.7,3.6-1.2,5.7-1.4c2.1-0.3,4.3-0.5,6.5-0.8c0.9-0.1,1.6-0.2,2.2-0.3c0.6-0.1,1.2-0.4,1.6-0.7
			c0.4-0.3,0.8-0.8,1-1.3c0.2-0.6,0.4-1.3,0.4-2.2c0-1.4-0.2-2.5-0.7-3.4c-0.4-0.9-1.1-1.6-1.9-2.1c-0.8-0.5-1.7-0.9-2.8-1.1
			c-1-0.2-2.2-0.3-3.4-0.3c-2.6,0-4.7,0.6-6.3,1.8c-1.6,1.2-2.5,3.2-2.6,5.9h-4C849.3,349,849.7,347.4,850.4,345.9z M870.6,355.8
			c-0.3,0.5-0.8,0.8-1.5,1c-0.7,0.2-1.4,0.4-1.9,0.4c-1.7,0.3-3.5,0.6-5.3,0.8c-1.8,0.2-3.5,0.6-5,1.1c-1.5,0.5-2.7,1.1-3.7,2
			c-1,0.9-1.4,2.1-1.4,3.8c0,1,0.2,1.9,0.6,2.7c0.4,0.8,1,1.5,1.6,2.1c0.7,0.6,1.5,1,2.4,1.3c0.9,0.3,1.8,0.5,2.8,0.5
			c1.5,0,3-0.2,4.4-0.7c1.4-0.5,2.6-1.2,3.7-2.1c1-0.9,1.9-2,2.5-3.3c0.6-1.3,0.9-2.7,0.9-4.4v-5.3H870.6z"/>
		<path d="M888.1,340.8v5.7h0.1c0.8-2,2.1-3.6,4.1-4.8c2-1.2,4.1-1.8,6.5-1.8c2.3,0,4.2,0.3,5.8,0.9c1.6,0.6,2.8,1.4,3.8,2.5
			c0.9,1.1,1.6,2.4,2,4c0.4,1.6,0.6,3.4,0.6,5.3v21.3h-4v-20.7c0-1.4-0.1-2.7-0.4-3.9c-0.3-1.2-0.7-2.3-1.3-3.2
			c-0.6-0.9-1.5-1.6-2.6-2.1c-1.1-0.5-2.5-0.8-4.1-0.8c-1.6,0-3.1,0.3-4.3,0.9c-1.3,0.6-2.3,1.4-3.2,2.4c-0.9,1-1.6,2.2-2.1,3.6
			c-0.5,1.4-0.8,2.9-0.8,4.5v19.3h-4v-33.1H888.1z"/>
		<path d="M945.3,373.9v-6.3h-0.1c-0.4,1.1-1.1,2.1-1.9,3c-0.8,0.9-1.8,1.7-2.9,2.3c-1.1,0.6-2.2,1.1-3.4,1.4
			c-1.2,0.3-2.4,0.5-3.6,0.5c-2.5,0-4.7-0.5-6.6-1.4c-1.9-0.9-3.4-2.2-4.7-3.8c-1.2-1.6-2.2-3.5-2.8-5.6c-0.6-2.1-0.9-4.4-0.9-6.7
			c0-2.4,0.3-4.6,0.9-6.7c0.6-2.1,1.5-4,2.8-5.6c1.2-1.6,2.8-2.9,4.7-3.8c1.9-0.9,4.1-1.4,6.6-1.4c1.2,0,2.5,0.2,3.6,0.5
			c1.2,0.3,2.3,0.8,3.3,1.4c1,0.6,1.9,1.4,2.7,2.3c0.8,0.9,1.4,1.9,1.8,3.1h0.1v-19h4v45.8H945.3z M923.1,362.5
			c0.4,1.7,1,3.2,1.9,4.5c0.9,1.3,2,2.4,3.4,3.2c1.4,0.8,3,1.3,4.9,1.3c2.1,0,3.9-0.4,5.4-1.3c1.5-0.8,2.7-1.9,3.6-3.2
			c0.9-1.3,1.6-2.8,2-4.5c0.4-1.7,0.6-3.4,0.6-5.1c0-1.7-0.2-3.4-0.6-5.1c-0.4-1.7-1.1-3.2-2-4.5c-0.9-1.3-2.1-2.4-3.6-3.2
			c-1.5-0.8-3.3-1.3-5.4-1.3c-1.9,0-3.6,0.4-4.9,1.3c-1.4,0.8-2.5,1.9-3.4,3.2c-0.9,1.3-1.5,2.8-1.9,4.5c-0.4,1.7-0.6,3.4-0.6,5.1
			C922.5,359.1,922.7,360.8,923.1,362.5z"/>
		<path d="M981.1,364.8c0.8,1.6,1.8,2.8,3.2,3.8c1.3,0.9,2.9,1.6,4.8,2c1.8,0.4,3.8,0.6,5.9,0.6c1.2,0,2.5-0.2,3.9-0.5
			c1.4-0.3,2.7-0.9,3.9-1.6c1.2-0.7,2.2-1.7,3-2.9c0.8-1.2,1.2-2.6,1.2-4.3c0-1.3-0.3-2.4-0.9-3.3c-0.6-0.9-1.3-1.7-2.2-2.4
			c-0.9-0.6-1.9-1.2-3-1.6c-1.1-0.4-2.2-0.7-3.3-1l-10.2-2.5c-1.3-0.3-2.6-0.8-3.9-1.3c-1.3-0.5-2.4-1.2-3.3-2.1
			c-0.9-0.9-1.7-1.9-2.3-3.1c-0.6-1.2-0.9-2.8-0.9-4.6c0-1.1,0.2-2.4,0.6-3.9c0.4-1.5,1.2-2.9,2.4-4.2c1.2-1.3,2.8-2.5,4.8-3.4
			c2.1-0.9,4.7-1.4,7.9-1.4c2.3,0,4.4,0.3,6.5,0.9c2.1,0.6,3.9,1.5,5.4,2.7c1.5,1.2,2.8,2.7,3.7,4.5c0.9,1.8,1.4,3.8,1.4,6.2h-4.4
			c-0.1-1.8-0.5-3.3-1.2-4.6c-0.7-1.3-1.6-2.4-2.8-3.3c-1.1-0.9-2.4-1.5-3.9-2c-1.5-0.4-3-0.7-4.7-0.7c-1.5,0-2.9,0.2-4.3,0.5
			c-1.4,0.3-2.6,0.8-3.7,1.5c-1,0.7-1.9,1.6-2.5,2.8c-0.6,1.2-1,2.6-1,4.3c0,1.1,0.2,2,0.5,2.8c0.4,0.8,0.9,1.5,1.5,2
			c0.6,0.6,1.4,1,2.2,1.3c0.8,0.3,1.7,0.6,2.7,0.8l11.2,2.8c1.6,0.4,3.2,1,4.6,1.6c1.4,0.6,2.7,1.4,3.8,2.3c1.1,0.9,1.9,2,2.6,3.4
			c0.6,1.3,0.9,2.9,0.9,4.8c0,0.5-0.1,1.2-0.2,2.1c-0.1,0.9-0.4,1.8-0.8,2.7c-0.4,1-1,1.9-1.7,2.9c-0.8,1-1.8,1.9-3.1,2.7
			c-1.3,0.8-2.9,1.4-4.8,1.9c-1.9,0.5-4.2,0.7-6.9,0.7c-2.7,0-5.2-0.3-7.5-0.9c-2.3-0.6-4.3-1.6-5.9-2.9c-1.6-1.3-2.9-2.9-3.8-4.9
			c-0.9-2-1.3-4.4-1.1-7.3h4.4C979.9,361.2,980.3,363.2,981.1,364.8z"/>
		<path d="M1022.6,340.8v6.3h0.1c0.9-2.3,2.5-4.1,4.6-5.4c2.1-1.3,4.5-1.9,7.2-1.9c2.5,0,4.7,0.5,6.6,1.4c1.9,0.9,3.4,2.2,4.7,3.8
			c1.2,1.6,2.2,3.5,2.8,5.6c0.6,2.1,0.9,4.4,0.9,6.7c0,2.4-0.3,4.6-0.9,6.7c-0.6,2.1-1.5,4-2.8,5.6c-1.2,1.6-2.8,2.9-4.7,3.8
			c-1.9,0.9-4.1,1.4-6.6,1.4c-1.2,0-2.4-0.2-3.6-0.4c-1.2-0.3-2.3-0.7-3.3-1.3c-1-0.6-1.9-1.3-2.7-2.2c-0.8-0.9-1.4-1.9-1.8-3.1
			h-0.1v18.5h-4v-45.3H1022.6z M1044.8,352.3c-0.4-1.7-1-3.2-1.9-4.5c-0.9-1.3-2-2.4-3.4-3.2c-1.4-0.8-3-1.3-4.9-1.3
			c-2.2,0-4.1,0.4-5.6,1.2c-1.5,0.8-2.7,1.8-3.6,3.1c-0.9,1.3-1.5,2.8-1.9,4.5c-0.4,1.7-0.5,3.5-0.5,5.4c0,1.7,0.2,3.4,0.6,5.1
			c0.4,1.7,1.1,3.2,2,4.5c0.9,1.3,2.1,2.4,3.6,3.2c1.5,0.8,3.3,1.3,5.4,1.3c1.9,0,3.6-0.4,4.9-1.3c1.4-0.8,2.5-1.9,3.4-3.2
			c0.9-1.3,1.5-2.8,1.9-4.5c0.4-1.7,0.6-3.4,0.6-5.1C1045.4,355.7,1045.2,354,1044.8,352.3z"/>
		<path d="M1057.9,345.9c0.7-1.4,1.6-2.6,2.8-3.5c1.2-0.9,2.6-1.6,4.1-2c1.6-0.4,3.3-0.6,5.3-0.6c1.5,0,2.9,0.1,4.4,0.4
			s2.8,0.8,3.9,1.6c1.2,0.8,2.1,1.9,2.8,3.2c0.7,1.4,1.1,3.2,1.1,5.4v17.6c0,1.6,0.8,2.4,2.4,2.4c0.5,0,0.9-0.1,1.3-0.3v3.4
			c-0.5,0.1-0.9,0.2-1.3,0.2c-0.4,0-0.8,0.1-1.4,0.1c-1,0-1.9-0.1-2.5-0.4c-0.6-0.3-1.1-0.7-1.4-1.2c-0.3-0.5-0.6-1.1-0.7-1.8
			c-0.1-0.7-0.2-1.5-0.2-2.3h-0.1c-0.7,1.1-1.5,2-2.2,2.9c-0.7,0.8-1.6,1.5-2.5,2.1c-0.9,0.6-2,1-3.1,1.3c-1.2,0.3-2.6,0.4-4.2,0.4
			c-1.5,0-3-0.2-4.3-0.5c-1.3-0.4-2.5-0.9-3.5-1.7c-1-0.8-1.8-1.8-2.4-3c-0.6-1.2-0.9-2.7-0.9-4.3c0-2.3,0.5-4.1,1.5-5.4
			c1-1.3,2.4-2.3,4.1-3c1.7-0.7,3.6-1.2,5.7-1.4c2.1-0.3,4.3-0.5,6.5-0.8c0.9-0.1,1.6-0.2,2.2-0.3c0.6-0.1,1.2-0.4,1.6-0.7
			c0.4-0.3,0.8-0.8,1-1.3c0.2-0.6,0.4-1.3,0.4-2.2c0-1.4-0.2-2.5-0.7-3.4c-0.4-0.9-1.1-1.6-1.9-2.1c-0.8-0.5-1.7-0.9-2.8-1.1
			c-1-0.2-2.2-0.3-3.4-0.3c-2.6,0-4.7,0.6-6.3,1.8c-1.6,1.2-2.5,3.2-2.6,5.9h-4C1056.8,349,1057.2,347.4,1057.9,345.9z
			 M1078.1,355.8c-0.3,0.5-0.8,0.8-1.5,1c-0.7,0.2-1.4,0.4-1.9,0.4c-1.7,0.3-3.5,0.6-5.3,0.8c-1.8,0.2-3.5,0.6-5,1.1s-2.7,1.1-3.7,2
			c-1,0.9-1.4,2.1-1.4,3.8c0,1,0.2,1.9,0.6,2.7c0.4,0.8,1,1.5,1.6,2.1c0.7,0.6,1.5,1,2.4,1.3c0.9,0.3,1.8,0.5,2.8,0.5
			c1.5,0,3-0.2,4.4-0.7c1.4-0.5,2.6-1.2,3.7-2.1c1-0.9,1.9-2,2.5-3.3c0.6-1.3,0.9-2.7,0.9-4.4v-5.3H1078.1z"/>
		<path d="M1111.9,345.4c-1.5-1.4-3.6-2.1-6.3-2.1c-1.9,0-3.6,0.4-5.1,1.2c-1.5,0.8-2.7,1.9-3.6,3.2c-1,1.3-1.7,2.8-2.2,4.5
			c-0.5,1.7-0.7,3.4-0.7,5.2c0,1.8,0.2,3.5,0.7,5.2c0.5,1.7,1.2,3.2,2.2,4.5c1,1.3,2.2,2.4,3.6,3.2c1.5,0.8,3.1,1.2,5.1,1.2
			c1.2,0,2.4-0.2,3.5-0.7c1.1-0.5,2.1-1.1,3-2c0.9-0.8,1.6-1.8,2.1-3c0.6-1.2,0.9-2.4,1-3.8h4c-0.6,4-2,7.2-4.4,9.4
			c-2.4,2.2-5.5,3.4-9.2,3.4c-2.5,0-4.8-0.5-6.7-1.4c-1.9-0.9-3.6-2.2-4.9-3.8c-1.3-1.6-2.3-3.4-3-5.6c-0.7-2.1-1-4.4-1-6.8
			c0-2.4,0.3-4.7,1-6.8c0.7-2.1,1.7-4,3-5.6c1.3-1.6,3-2.8,4.9-3.8c1.9-0.9,4.2-1.4,6.7-1.4c3.6,0,6.6,0.9,9,2.8
			c2.5,1.9,3.9,4.7,4.4,8.5h-4C1114.4,348.7,1113.4,346.8,1111.9,345.4z"/>
		<path d="M1129.2,363c0.4,1.6,1.1,3,2,4.2c0.9,1.2,2,2.3,3.4,3.1s3,1.2,4.9,1.2c3,0,5.3-0.8,6.9-2.3c1.7-1.5,2.8-3.6,3.5-6.2h4
			c-0.9,3.8-2.4,6.7-4.7,8.7c-2.3,2.1-5.5,3.1-9.7,3.1c-2.6,0-4.9-0.5-6.8-1.4c-1.9-0.9-3.5-2.2-4.7-3.8c-1.2-1.6-2.1-3.5-2.7-5.6
			c-0.6-2.1-0.9-4.4-0.9-6.7c0-2.2,0.3-4.3,0.9-6.4c0.6-2.1,1.5-4,2.7-5.6c1.2-1.6,2.8-3,4.7-4c1.9-1,4.2-1.5,6.8-1.5
			c2.7,0,4.9,0.5,6.8,1.6c1.9,1.1,3.4,2.5,4.6,4.2c1.2,1.7,2,3.7,2.5,6c0.5,2.2,0.7,4.5,0.6,6.8h-25.5
			C1128.6,359.9,1128.8,361.4,1129.2,363z M1149.3,350.6c-0.5-1.4-1.2-2.7-2.1-3.8c-0.9-1.1-2-2-3.3-2.6c-1.3-0.7-2.7-1-4.4-1
			c-1.7,0-3.1,0.3-4.4,1c-1.3,0.7-2.4,1.5-3.3,2.6c-0.9,1.1-1.6,2.4-2.2,3.8c-0.5,1.4-0.9,2.9-1.1,4.4h21.4
			C1150,353.5,1149.7,352,1149.3,350.6z"/>
		<path d="M1201.1,328.1c2.1,0,3.9,0.3,5.6,0.9c1.7,0.6,3.1,1.4,4.3,2.6c1.2,1.1,2.1,2.5,2.8,4.1c0.6,1.6,1,3.5,1,5.5
			c0,2.1-0.3,3.9-1,5.5c-0.6,1.6-1.6,3-2.8,4.1c-1.2,1.1-2.6,2-4.3,2.6c-1.7,0.6-3.5,0.9-5.6,0.9h-16v19.6h-4.4v-45.8H1201.1z
			 M1200.1,350.6c3,0,5.5-0.8,7.4-2.3c1.9-1.5,2.8-3.9,2.8-7.1c0-3.2-0.9-5.5-2.8-7.1c-1.9-1.5-4.3-2.3-7.4-2.3h-15v18.7H1200.1z"/>
		<path d="M1225.7,328.1v18.4h0.1c0.8-2,2.1-3.6,4.1-4.8c2-1.2,4.1-1.8,6.5-1.8c2.3,0,4.2,0.3,5.8,0.9c1.6,0.6,2.8,1.4,3.8,2.5
			c0.9,1.1,1.6,2.4,2,4c0.4,1.6,0.6,3.4,0.6,5.3v21.3h-4v-20.7c0-1.4-0.1-2.7-0.4-3.9s-0.7-2.3-1.3-3.2c-0.6-0.9-1.5-1.6-2.6-2.1
			c-1.1-0.5-2.5-0.8-4.1-0.8s-3.1,0.3-4.3,0.9c-1.3,0.6-2.3,1.4-3.2,2.4c-0.9,1-1.6,2.2-2.1,3.6c-0.5,1.4-0.8,2.9-0.8,4.5v19.3h-4
			v-45.8H1225.7z"/>
		<path d="M1258,340.8l10.9,28.2l10.2-28.2h4l-14.4,38.1c-0.6,1.4-1.2,2.6-1.7,3.5c-0.5,0.9-1.1,1.6-1.7,2.2
			c-0.6,0.5-1.3,0.9-2.2,1.2c-0.8,0.2-1.9,0.4-3.2,0.4c-0.8,0-1.4-0.1-1.9-0.1c-0.4,0-0.8-0.1-1.2-0.2v-3.4c0.5,0.1,0.9,0.2,1.4,0.2
			c0.4,0.1,0.9,0.1,1.4,0.1c0.9,0,1.6-0.1,2.2-0.4c0.6-0.3,1.1-0.6,1.5-1.1c0.4-0.4,0.8-1,1.1-1.6c0.3-0.6,0.6-1.3,1-2.1l1.4-3.7
			l-13.2-33H1258z"/>
		<path d="M1307.5,347.3c-0.5-0.9-1.1-1.7-1.9-2.3c-0.8-0.6-1.7-1-2.7-1.3c-1-0.3-2.1-0.4-3.3-0.4c-0.9,0-1.8,0.1-2.7,0.3
			c-0.9,0.2-1.8,0.5-2.5,1c-0.8,0.4-1.4,1-1.9,1.8c-0.5,0.7-0.7,1.6-0.7,2.7c0,0.9,0.2,1.7,0.7,2.3c0.4,0.6,1,1.1,1.7,1.6
			c0.7,0.4,1.4,0.8,2.2,1.1c0.8,0.3,1.6,0.5,2.2,0.7l5.4,1.2c1.2,0.2,2.3,0.5,3.4,0.9c1.1,0.5,2.1,1,3,1.8c0.9,0.7,1.6,1.6,2.2,2.7
			c0.6,1.1,0.8,2.3,0.8,3.8c0,1.8-0.4,3.3-1.2,4.6c-0.8,1.3-1.9,2.3-3.1,3.1c-1.3,0.8-2.7,1.4-4.3,1.7c-1.6,0.3-3.1,0.5-4.7,0.5
			c-3.9,0-7.1-0.9-9.5-2.8c-2.4-1.8-3.8-4.8-4.1-8.9h4c0.2,2.7,1.2,4.8,3,6.2c1.8,1.4,4.1,2.1,6.8,2.1c1,0,2-0.1,3-0.3
			c1-0.2,2-0.6,2.9-1.1c0.9-0.5,1.6-1.2,2.2-2c0.6-0.8,0.9-1.8,0.9-2.9c0-1-0.2-1.8-0.6-2.5c-0.4-0.7-1-1.2-1.6-1.7
			c-0.7-0.4-1.5-0.8-2.3-1.1c-0.9-0.3-1.8-0.6-2.7-0.8l-5.2-1.2c-1.3-0.3-2.5-0.7-3.7-1.2c-1.1-0.4-2.1-1-2.9-1.7
			c-0.8-0.7-1.5-1.5-2-2.4c-0.5-1-0.7-2.2-0.7-3.6c0-1.7,0.4-3.1,1.1-4.3c0.7-1.2,1.7-2.2,2.9-2.9c1.2-0.7,2.5-1.3,4-1.6
			c1.5-0.3,2.9-0.5,4.4-0.5c1.7,0,3.2,0.2,4.7,0.6c1.4,0.4,2.7,1.1,3.8,2c1.1,0.9,2,2,2.6,3.3c0.6,1.3,1,2.9,1.1,4.7h-4
			C1308.3,349.3,1308,348.2,1307.5,347.3z"/>
		<path d="M1324.7,328.1v6.5h-4v-6.5H1324.7z M1324.7,340.8v33.1h-4v-33.1H1324.7z"/>
		<path d="M1354.1,345.4c-1.5-1.4-3.6-2.1-6.3-2.1c-1.9,0-3.6,0.4-5.1,1.2c-1.5,0.8-2.7,1.9-3.6,3.2c-1,1.3-1.7,2.8-2.2,4.5
			c-0.5,1.7-0.7,3.4-0.7,5.2c0,1.8,0.2,3.5,0.7,5.2c0.5,1.7,1.2,3.2,2.2,4.5c1,1.3,2.2,2.4,3.6,3.2s3.1,1.2,5.1,1.2
			c1.2,0,2.4-0.2,3.5-0.7c1.1-0.5,2.1-1.1,3-2c0.9-0.8,1.6-1.8,2.1-3c0.6-1.2,0.9-2.4,1-3.8h4c-0.6,4-2,7.2-4.4,9.4
			c-2.4,2.2-5.5,3.4-9.2,3.4c-2.5,0-4.8-0.5-6.7-1.4c-1.9-0.9-3.6-2.2-4.9-3.8c-1.3-1.6-2.3-3.4-3-5.6c-0.7-2.1-1-4.4-1-6.8
			c0-2.4,0.3-4.7,1-6.8c0.7-2.1,1.7-4,3-5.6c1.3-1.6,3-2.8,4.9-3.8c1.9-0.9,4.2-1.4,6.7-1.4c3.6,0,6.6,0.9,9,2.8
			c2.5,1.9,3.9,4.7,4.4,8.5h-4C1356.6,348.7,1355.6,346.8,1354.1,345.4z"/>
		<path d="M1387.5,347.3c-0.5-0.9-1.1-1.7-1.9-2.3c-0.8-0.6-1.7-1-2.7-1.3c-1-0.3-2.1-0.4-3.3-0.4c-0.9,0-1.8,0.1-2.7,0.3
			c-0.9,0.2-1.8,0.5-2.5,1c-0.8,0.4-1.4,1-1.9,1.8c-0.5,0.7-0.7,1.6-0.7,2.7c0,0.9,0.2,1.7,0.7,2.3c0.4,0.6,1,1.1,1.7,1.6
			c0.7,0.4,1.4,0.8,2.2,1.1c0.8,0.3,1.6,0.5,2.2,0.7l5.4,1.2c1.2,0.2,2.3,0.5,3.4,0.9c1.1,0.5,2.1,1,3,1.8c0.9,0.7,1.6,1.6,2.2,2.7
			c0.6,1.1,0.8,2.3,0.8,3.8c0,1.8-0.4,3.3-1.2,4.6c-0.8,1.3-1.9,2.3-3.1,3.1c-1.3,0.8-2.7,1.4-4.3,1.7c-1.6,0.3-3.1,0.5-4.7,0.5
			c-3.9,0-7.1-0.9-9.5-2.8c-2.4-1.8-3.8-4.8-4.1-8.9h4c0.2,2.7,1.2,4.8,3,6.2c1.8,1.4,4.1,2.1,6.8,2.1c1,0,2-0.1,3-0.3
			c1-0.2,2-0.6,2.9-1.1c0.9-0.5,1.6-1.2,2.2-2c0.6-0.8,0.9-1.8,0.9-2.9c0-1-0.2-1.8-0.6-2.5c-0.4-0.7-1-1.2-1.6-1.7
			c-0.7-0.4-1.5-0.8-2.3-1.1c-0.9-0.3-1.8-0.6-2.7-0.8l-5.2-1.2c-1.3-0.3-2.5-0.7-3.7-1.2c-1.1-0.4-2.1-1-2.9-1.7
			c-0.8-0.7-1.5-1.5-2-2.4c-0.5-1-0.7-2.2-0.7-3.6c0-1.7,0.4-3.1,1.1-4.3c0.7-1.2,1.7-2.2,2.9-2.9c1.2-0.7,2.5-1.3,4-1.6
			c1.5-0.3,2.9-0.5,4.4-0.5c1.7,0,3.2,0.2,4.7,0.6c1.4,0.4,2.7,1.1,3.8,2c1.1,0.9,2,2,2.6,3.3c0.6,1.3,1,2.9,1.1,4.7h-4
			C1388.2,349.3,1387.9,348.2,1387.5,347.3z"/>
	</g>
	<g>
		<path class="st0" d="M750.1,267h-90.8c-27.8,0-49-4.8-63.7-14.3c-14.7-9.5-22-23-22-40.6V38.8h72.3v171.7
			c0,12.4,3.5,20.7,10.6,24.7c7.1,4,17,6.1,29.8,6.1h63.8V267z"/>
		<path class="st0" d="M972,267h-72.3V144h-57.1v123h-72.3V98.5c0-20.2,8.6-35.6,25.8-46.3c17.2-10.7,42.2-16,75.1-16
			c35.3,0,60.9,5,76.9,15c16,10,24,25.8,24,47.3V267z M899.7,113.8V89.1c0-9.4-2.2-16.1-6.5-20c-4.3-3.9-11.5-5.9-21.7-5.9
			c-11.1,0-18.7,1.9-22.8,5.8c-4.1,3.9-6.1,10.6-6.1,20.2v24.7H899.7z"/>
		<path class="st0" d="M1180,206.4c0,21.3-8.6,37.4-25.6,48.2c-17.1,10.8-42.1,16.3-75,16.3c-29.6,0-52.8-4.8-69.5-14.6
			c-16.7-9.7-25-23.7-25-42h67.7c0,7.6,2.4,13.5,7.2,17.5c4.8,4.1,12,6.1,21.6,6.1c9.7,0,17.3-1.8,22.8-5.6
			c5.4-3.7,8.2-8.9,8.2-15.5c0-6.8-2.1-12.9-6.3-18.3c-4.2-5.4-10.6-11-19.3-16.7c-4.5-3.1-15.2-9.3-31.8-18.8
			c-16.7-9.5-26.5-15.1-29.5-16.8c-12.9-8.2-22.5-16.6-28.6-25.3c-6.2-8.6-9.3-18-9.3-28c0-17.3,8.6-31.1,25.8-41.4
			c17.2-10.3,39.5-15.5,66.8-15.5c27.5,0,49.1,5,64.9,14.9c15.8,9.9,23.7,23.6,23.7,41H1101c0-7.5-2-13.3-6.2-17.2
			c-4.1-3.9-10.6-5.9-19.3-5.9c-7.5,0-13.2,1.6-17.1,4.7c-3.9,3.1-5.8,7.5-5.8,13c0,4.3,1.9,8.4,5.6,12.4c3.8,4,10.8,9,21.2,15
			c1.4,0.7,10.8,5.8,28.1,15.3c17.3,9.5,29.6,16.7,37,21.5c12.7,8.7,21.9,17.4,27.3,26.1C1177.3,185.8,1180,195.6,1180,206.4z"/>
		<path class="st0" d="M1393.3,100.3c0,20.7-7.6,36.1-22.7,46.2c-15.2,10.2-38.1,15.2-69,15.2h-35.7V267h-72.3V38.8h113
			c30.7,0,52.9,4.8,66.4,14.3C1386.5,62.6,1393.3,78.4,1393.3,100.3z M1321,100.3c0-12.2-3.2-21.2-9.7-27.1
			c-6.5-5.8-16.4-8.8-29.8-8.8h-15.6v71.7h15.6c13.5,0,23.5-2.7,29.9-8.1C1317.8,122.5,1321,113.3,1321,100.3z"/>
	</g>
	<g>
		<defs>
			<rect id="SVGID_1_" x="364.1" y="38.8" width="191" height="228.2"/>
		</defs>
		<clipPath id="SVGID_2_">
			<use xlink:href="#SVGID_1_"  style="overflow:visible;"/>
		</clipPath>
		<polygon class="st1" points="560.4,272.3 358.8,272.3 358.8,33.5 560.4,33.5 		"/>
		<rect x="364.1" y="38.8" class="st2" width="191" height="228.2"/>
		<path class="st1" d="M556.2,175.4c-15.2,7.9-32.4,12.4-50.6,12.4c-61.5,0-111.3-50.6-111.3-112.9c0-13,2.2-25.5,6.2-37.1
			c51.4,0,155.8,0,155.8,0C556.2,54.4,556.2,175.4,556.2,175.4z"/>
		<path class="st3" d="M555.1,107.7c-7.6,4-16.2,6.2-25.3,6.2c-30.7,0-55.6-25.3-55.6-56.5c0-6.5,1.1-12.8,3.1-18.6
			c25.7,0,77.9,0,77.9,0C555.1,47.1,555.1,107.7,555.1,107.7z"/>
		<path class="st4" d="M361.6,168.9c26.8,60.7,87.3,81.8,157,81.8c12.6,0,29.6-1.4,39.3-4"/>
		<path class="st5" d="M361.4,83.5c0,96,84.6,173.2,179.2,173.2c5,0,10.9-0.3,15.8-0.7"/>
		<path class="st6" d="M375.4,159c4.7,0,8.6-3.9,8.6-8.7c0-4.8-3.8-8.7-8.6-8.7c-4.7,0-8.6,3.9-8.6,8.7
			C366.9,155.1,370.7,159,375.4,159z"/>
		<path class="st7" d="M538.9,256.6c4.3,0,7.8-3.6,7.8-8c0-4.4-3.5-8-7.8-8c-4.3,0-7.8,3.6-7.8,8
			C531.1,253.1,534.6,256.6,538.9,256.6z"/>
		<path class="st8" d="M380.9,219c0-11.8,9.4-21.3,21-21.3c11.6,0,21,9.5,21,21.3c0,11.8-9.4,21.3-21,21.3
			C390.3,240.3,380.9,230.8,380.9,219z"/>
	</g>
	<g>
		<polygon class="st9" points="213.8,94.7 213.8,67.7 181.7,35.5 70.3,35.5 38.1,67.7 38.1,178.9 70.3,211 105.7,211 105.7,238.1 
			138.2,270.3 232.1,270.3 264.7,238.1 264.7,152 281.3,152 281.3,94.7 		"/>
		<polygon points="180.3,38.8 210.5,69.1 210.5,98 278,98 278,148.7 261.4,148.7 261.4,236.7 230.8,267 139.5,267 109,236.7 
			109,207.7 71.7,207.7 41.4,177.5 41.4,69.1 71.7,38.8 		"/>
		<polyline class="st10" points="75.1,199.3 117.4,199.3 117.4,233.2 143,258.6 227.3,258.6 253,233.2 253,140.3 269.6,140.3 
			269.6,106.4 218.7,106.4 218.7,224.7 151.3,224.7 151.3,199.3 176.8,199.3 202.1,174 202.1,140.3 168.2,140.3 168.2,165.5 
			151.3,165.5 151.3,106.4 100.5,106.4 100.5,140.3 117.4,140.3 117.4,165.5 83.6,165.5 83.6,80.8 168.2,80.8 168.2,106.4 
			202.1,106.4 202.1,72.5 176.8,47.2 75.1,47.2 49.7,72.5 49.7,174 75.1,199.3 		"/>
		<polygon class="st9" points="147.1,195.2 175.1,195.2 197.9,172.3 197.9,144.5 172.4,144.5 172.4,169.7 147.1,169.7 147.1,110.5 
			104.7,110.5 104.7,136.1 121.5,136.1 121.5,169.7 79.4,169.7 79.4,76.6 172.4,76.6 172.4,102.2 197.9,102.2 197.9,74.3 
			175.1,51.3 76.9,51.3 53.9,74.3 53.9,172.3 76.9,195.2 121.5,195.2 121.5,231.5 144.7,254.5 225.6,254.5 248.9,231.5 248.9,136.1 
			265.5,136.1 265.5,110.5 222.9,110.5 222.9,228.9 147.1,228.9 		"/>
	</g>
	<line class="st11" x1="322.9" y1="38.3" x2="322.9" y2="304.1"/>
	<line class="st11" x1="1393.3" y1="304.1" x2="41.4" y2="304.1"/>
</g>
</svg>
