<svg xmlns="http://www.w3.org/2000/svg" viewBox="0 0 500 84"><defs><style>.cls-1{fill:#fff;}.cls-2{fill:#2774ae;}</style></defs><title>Bxd_Wht_EarthPlanetarySpaceSci_C</title><g id="Boxed_Black" data-name="Boxed Black"><path class="cls-1" d="M121.49,40.44h12.76v3H125v3.88h8.1v2.89H125v4.68h9.31v2.93H121.49Z"/><path class="cls-1" d="M143.47,56.39h-.05c-.63,1-1.53,1.67-3.66,1.67-2.55,0-4.34-1.33-4.34-3.8,0-2.74,2.23-3.62,5-4,2.06-.3,3-.46,3-1.41s-.7-1.48-2.08-1.48c-1.55,0-2.31.56-2.4,1.75H136c.1-2.19,1.72-4.1,5.36-4.1s5.24,1.67,5.24,4.58v6.33c0,1,.14,1.5.44,1.72v.12h-3.18A3.21,3.21,0,0,1,143.47,56.39Zm0-3V51.52a8.9,8.9,0,0,1-2.3.72c-1.72.39-2.57.78-2.57,1.94s.78,1.58,1.94,1.58C142.45,55.76,143.49,54.6,143.49,53.38Z"/><path class="cls-1" d="M151.83,47.32h.07c.75-1.4,1.6-2.13,3.06-2.13a2,2,0,0,1,.77.1v2.88h-.07c-2.16-.22-3.71.92-3.71,3.54v6.06h-3.3V45.33h3.18Z"/><path class="cls-1" d="M156.46,45.33h1.73V41.46h3.22v3.87h2.13v2.19h-2.13v6.59a1.1,1.1,0,0,0,1.24,1.24c.41,0,1,0,1,0v2.43s-.75,0-2.06,0c-1.6,0-3.37-.63-3.37-3V47.52h-1.73Z"/><path class="cls-1" d="M168.35,47h.07A4,4,0,0,1,172,45c2.57,0,4.29,1.93,4.29,4.65v8.12H173V50.13a2.07,2.07,0,0,0-2.16-2.27,2.6,2.6,0,0,0-2.52,2.86v7.05h-3.3V40.44h3.3Z"/><path class="cls-1" d="M178.36,60.61a3,3,0,0,0,1.74-2.84h-1.77V54.26h3.54v3.32a4.11,4.11,0,0,1-3.51,4.22Z"/><path class="cls-1" d="M188.15,40.44h7.62a6.08,6.08,0,0,1,4.53,1.62A5.54,5.54,0,0,1,201.85,46c0,3.28-2.16,5.48-5.79,5.48h-4.27v6.28h-3.64Zm3.64,8.19h3.64c1.84,0,2.81-1,2.81-2.59s-1-2.55-2.77-2.55h-3.68Z"/><path class="cls-1" d="M203.06,40.44h3.3V57.77h-3.3Z"/><path class="cls-1" d="M215.92,56.39h0c-.63,1-1.53,1.67-3.66,1.67-2.55,0-4.34-1.33-4.34-3.8,0-2.74,2.23-3.62,5-4,2.06-.3,3-.46,3-1.41s-.7-1.48-2.09-1.48c-1.55,0-2.3.56-2.4,1.75h-2.93c.1-2.19,1.72-4.1,5.36-4.1S219,46.69,219,49.6v6.33c0,1,.15,1.5.44,1.72v.12h-3.17A3.21,3.21,0,0,1,215.92,56.39Zm0-3V51.52a9,9,0,0,1-2.3.72c-1.72.39-2.57.78-2.57,1.94s.77,1.58,1.94,1.58C214.9,55.76,215.94,54.6,215.94,53.38Z"/><path class="cls-1" d="M224.33,47h.07a4,4,0,0,1,3.68-2c2.57,0,4.3,1.93,4.3,4.65v8.12h-3.3V50.13a2.07,2.07,0,0,0-2.16-2.27,2.59,2.59,0,0,0-2.52,2.86v7.05h-3.3V45.33h3.23Z"/><path class="cls-1" d="M233.78,51.54c0-3.68,2.49-6.54,6.13-6.54,4,0,6.13,3,6.13,7.49h-9c.25,1.91,1.31,3.1,3.18,3.1a2.31,2.31,0,0,0,2.4-1.53h3.25c-.46,2.21-2.42,4.08-5.63,4.08C236.1,58.14,233.78,55.25,233.78,51.54Zm3.29-1.33h5.53A2.62,2.62,0,0,0,240,47.54C238.21,47.54,237.36,48.58,237.07,50.21Z"/><path class="cls-1" d="M246.32,45.33H248V41.46h3.22v3.87h2.14v2.19h-2.14v6.59a1.1,1.1,0,0,0,1.24,1.24c.41,0,1,0,1,0v2.43s-.75,0-2.06,0c-1.6,0-3.37-.63-3.37-3V47.52h-1.72Z"/><path class="cls-1" d="M262.39,56.39h0c-.64,1-1.53,1.67-3.67,1.67-2.54,0-4.34-1.33-4.34-3.8,0-2.74,2.23-3.62,5-4,2.06-.3,3-.46,3-1.41s-.71-1.48-2.09-1.48c-1.55,0-2.3.56-2.4,1.75h-2.93c.09-2.19,1.72-4.1,5.35-4.1s5.24,1.67,5.24,4.58v6.33c0,1,.15,1.5.44,1.72v.12h-3.18A3.52,3.52,0,0,1,262.39,56.39Zm0-3V51.52a9,9,0,0,1-2.3.72c-1.73.39-2.58.78-2.58,1.94s.78,1.58,1.94,1.58C261.38,55.76,262.42,54.6,262.42,53.38Z"/><path class="cls-1" d="M270.75,47.32h.08c.75-1.4,1.6-2.13,3.05-2.13a2,2,0,0,1,.78.1v2.88h-.08c-2.15-.22-3.71.92-3.71,3.54v6.06h-3.29V45.33h3.17Z"/><path class="cls-1" d="M276.53,59.25h1.16c1.31,0,1.85-.68,1.85-1.7a11.05,11.05,0,0,0-1-3.37l-3.35-8.85h3.47l1.84,5.6c.39,1.14.8,2.72.8,2.72h0s.34-1.58.73-2.72l1.75-5.6h3.32l-4.34,12.76c-.95,2.76-1.87,3.76-4.39,3.76h-1.94Z"/><path class="cls-1" d="M291.78,53.31c0-2.47,1.58-4,3.83-5.16a5.25,5.25,0,0,1-1.45-3.59c0-2.26,1.79-4,4.48-4s4.54,1.6,4.54,4c0,2.14-1.24,3.2-3.11,4.17l2.31,3a11.28,11.28,0,0,0,.68-2.82H306a12,12,0,0,1-1.65,5.36l2.74,3.54h-4l-.9-1.14a7.67,7.67,0,0,1-4.61,1.51C293.75,58.14,291.78,56,291.78,53.31Zm8.66,1.09-3.18-4.14a3.35,3.35,0,0,0-2,3,2.24,2.24,0,0,0,2.4,2.21A4.21,4.21,0,0,0,300.44,54.4Zm-1.84-7.56a2.47,2.47,0,0,0,1.45-2.26,1.33,1.33,0,0,0-1.36-1.38,1.34,1.34,0,0,0-1.36,1.41A3.41,3.41,0,0,0,298.6,46.84Z"/><path class="cls-1" d="M311.86,52.41h3.44c.25,2.09,1.43,2.91,3.91,2.91,1.79,0,3.37-.63,3.37-2.23s-1.65-2-4.29-2.64c-3.11-.7-5.94-1.53-5.94-5.14,0-3.42,2.78-5.19,6.64-5.19s6.42,1.92,6.69,5.41h-3.37c-.19-1.75-1.55-2.62-3.35-2.62s-3.12.8-3.12,2c0,1.4,1.21,1.81,3.78,2.37,3.56.78,6.47,1.63,6.47,5.36,0,3.52-2.83,5.48-6.74,5.48C314.65,58.16,312,56.08,311.86,52.41Z"/><path class="cls-1" d="M327.88,45.33h3.17v1.56h.07A4.34,4.34,0,0,1,334.79,45c3.29,0,5.4,2.69,5.4,6.57s-2.18,6.57-5.38,6.57a4,4,0,0,1-3.59-1.77h-.05v5.48h-3.29Zm9,6.33c0-2.35-.83-4-2.86-4s-2.89,1.77-2.89,4,1,3.74,3,3.74C335.78,55.4,336.85,54,336.85,51.66Z"/><path class="cls-1" d="M349.09,56.39h0c-.63,1-1.52,1.67-3.66,1.67-2.54,0-4.34-1.33-4.34-3.8,0-2.74,2.23-3.62,5-4,2.06-.3,3-.46,3-1.41s-.7-1.48-2.08-1.48c-1.55,0-2.3.56-2.4,1.75h-2.94c.1-2.19,1.73-4.1,5.36-4.1s5.24,1.67,5.24,4.58v6.33c0,1,.15,1.5.44,1.72v.12h-3.18A3.52,3.52,0,0,1,349.09,56.39Zm0-3V51.52a9,9,0,0,1-2.31.72c-1.72.39-2.57.78-2.57,1.94s.78,1.58,1.94,1.58C348.07,55.76,349.12,54.6,349.12,53.38Z"/><path class="cls-1" d="M353.57,51.57c0-3.71,2.42-6.57,6.2-6.57,3.23,0,5.22,1.86,5.65,4.55H362.2a2.28,2.28,0,0,0-2.28-1.91c-2,0-3,1.53-3,3.93s.95,3.92,3,3.92a2.32,2.32,0,0,0,2.5-2.11h3.17c-.21,2.65-2.27,4.76-5.6,4.76C356,58.14,353.57,55.28,353.57,51.57Z"/><path class="cls-1" d="M366.29,51.54c0-3.68,2.49-6.54,6.13-6.54,4,0,6.14,3,6.14,7.49h-9c.24,1.91,1.31,3.1,3.17,3.1a2.31,2.31,0,0,0,2.4-1.53h3.25c-.46,2.21-2.42,4.08-5.62,4.08C368.61,58.14,366.29,55.25,366.29,51.54Zm3.29-1.33h5.53a2.62,2.62,0,0,0-2.64-2.67C370.72,47.54,369.88,48.58,369.58,50.21Z"/><path class="cls-1" d="M383.65,52.41h3.44c.24,2.09,1.43,2.91,3.91,2.91,1.79,0,3.37-.63,3.37-2.23s-1.65-2-4.3-2.64c-3.1-.7-5.94-1.53-5.94-5.14,0-3.42,2.79-5.19,6.65-5.19s6.42,1.92,6.69,5.41H394.1c-.19-1.75-1.55-2.62-3.35-2.62s-3.12.8-3.12,2c0,1.4,1.21,1.81,3.78,2.37,3.56.78,6.47,1.63,6.47,5.36,0,3.52-2.84,5.48-6.74,5.48C386.44,58.16,383.77,56.08,383.65,52.41Z"/><path class="cls-1" d="M399,51.57c0-3.71,2.43-6.57,6.21-6.57,3.23,0,5.21,1.86,5.65,4.55h-3.22a2.28,2.28,0,0,0-2.28-1.91c-2,0-3,1.53-3,3.93s.95,3.92,3,3.92a2.33,2.33,0,0,0,2.5-2.11H411c-.22,2.65-2.28,4.76-5.6,4.76C401.46,58.14,399,55.28,399,51.57Z"/><path class="cls-1" d="M412.38,40.44h3.29v3h-3.29Zm0,4.89h3.29V57.77h-3.29Z"/><path class="cls-1" d="M417.15,51.54c0-3.68,2.5-6.54,6.14-6.54,4,0,6.13,3,6.13,7.49h-9c.24,1.91,1.31,3.1,3.18,3.1a2.33,2.33,0,0,0,2.4-1.53h3.25c-.46,2.21-2.43,4.08-5.63,4.08C419.48,58.14,417.15,55.25,417.15,51.54Zm3.3-1.33H426a2.62,2.62,0,0,0-2.64-2.67C421.59,47.54,420.74,48.58,420.45,50.21Z"/><path class="cls-1" d="M434.13,47h.07a4,4,0,0,1,3.68-2c2.58,0,4.3,1.93,4.3,4.65v8.12h-3.3V50.13a2.07,2.07,0,0,0-2.16-2.27,2.6,2.6,0,0,0-2.52,2.86v7.05h-3.3V45.33h3.23Z"/><path class="cls-1" d="M443.57,51.57c0-3.71,2.43-6.57,6.21-6.57,3.22,0,5.21,1.86,5.65,4.55H452.2a2.26,2.26,0,0,0-2.28-1.91c-2,0-3,1.53-3,3.93s.94,3.92,3,3.92a2.31,2.31,0,0,0,2.49-2.11h3.18c-.22,2.65-2.28,4.76-5.6,4.76C446,58.14,443.57,55.28,443.57,51.57Z"/><path class="cls-1" d="M456.29,51.54c0-3.68,2.5-6.54,6.14-6.54,4,0,6.13,3,6.13,7.49h-9c.24,1.91,1.31,3.1,3.18,3.1a2.33,2.33,0,0,0,2.4-1.53h3.25c-.46,2.21-2.43,4.08-5.63,4.08C458.62,58.14,456.29,55.25,456.29,51.54Zm3.3-1.33h5.53a2.63,2.63,0,0,0-2.65-2.67C460.73,47.54,459.88,48.58,459.59,50.21Z"/><path class="cls-1" d="M469.27,53.75h3.05c.22,1.43,1.24,2.06,2.72,2.06s2.28-.56,2.28-1.43c0-1.19-1.58-1.31-3.27-1.65-2.23-.44-4.42-1-4.42-3.76s2.23-4,5.07-4c3.27,0,5.09,1.62,5.34,4.12h-3c-.14-1.34-1-1.82-2.4-1.82s-2.13.48-2.13,1.38c0,1.07,1.65,1.16,3.42,1.53,2.08.43,4.39,1,4.39,3.93,0,2.49-2.14,4-5.24,4C471.48,58.14,469.46,56.39,469.27,53.75Z"/><path class="cls-1" d="M120.71,30.23c0-2.84,1.7-5,4.57-5a3.59,3.59,0,0,1,3.88,3.08H128a2.51,2.51,0,0,0-2.71-2c-2.12,0-3.31,1.71-3.31,4s1.31,4,3.32,4a2.68,2.68,0,0,0,2.81-2.66h1.2a4.1,4.1,0,0,1-1.16,2.71,4,4,0,0,1-2.89,1C122.49,35.25,120.71,33.16,120.71,30.23Z"/><path class="cls-1" d="M130.12,31.58a3.38,3.38,0,1,1,6.74,0,3.38,3.38,0,1,1-6.74,0Zm5.62,0c0-1.54-.76-2.77-2.24-2.77s-2.26,1.23-2.26,2.77.77,2.75,2.26,2.75S135.74,33.12,135.74,31.58Z"/><path class="cls-1" d="M138,25.41h1.09v9.65H138Z"/><path class="cls-1" d="M140.52,25.41h1.1v9.65h-1.1Z"/><path class="cls-1" d="M142.7,31.58A3.41,3.41,0,0,1,146,27.91c2.1,0,3.22,1.62,3.22,3.93h-5.41c.09,1.41.86,2.49,2.26,2.49A1.8,1.8,0,0,0,148,32.9h1.07a2.85,2.85,0,0,1-3,2.35A3.37,3.37,0,0,1,142.7,31.58Zm1.15-.57h4.2c-.07-1.39-.78-2.24-2-2.24S144,29.74,143.85,31Z"/><path class="cls-1" d="M150.12,35.46h1c.11.76.84,1.06,1.92,1.06,1.28,0,2-.58,2-1.79v-1h0A2.37,2.37,0,0,1,153,34.82c-1.81,0-3.05-1.44-3.05-3.46s1.36-3.44,3-3.44A2.41,2.41,0,0,1,155,29h0v-.89h1.09v6.61c0,1.83-1.21,2.7-3.06,2.7S150.24,36.66,150.12,35.46Zm5-4.15c0-1.53-.65-2.47-2.13-2.47-1.31,0-2,1-2,2.54s.68,2.52,2,2.52C154.62,33.9,155.13,32.78,155.13,31.31Z"/><path class="cls-1" d="M157.22,31.58a3.4,3.4,0,0,1,3.31-3.67c2.09,0,3.21,1.62,3.21,3.93h-5.4c.08,1.41.85,2.49,2.25,2.49a1.81,1.81,0,0,0,1.94-1.43h1.06a2.84,2.84,0,0,1-3,2.35A3.36,3.36,0,0,1,157.22,31.58Zm1.15-.57h4.2c-.07-1.39-.79-2.24-2-2.24S158.53,29.74,158.37,31Z"/><path class="cls-1" d="M169.4,24.88h.94V36.66h-.94Z"/><path class="cls-1" d="M176.58,25.41h4a2.9,2.9,0,0,1,2.3.93,2.81,2.81,0,0,1,.64,1.84c0,1.77-1,2.83-3.11,2.83h-2.64v4.05h-1.21ZM177.79,30h2.54c1.37,0,2-.69,2-1.8s-.71-1.77-1.94-1.77h-2.61Z"/><path class="cls-1" d="M185.58,29h0a2.62,2.62,0,0,1,2.21-1.08,2.1,2.1,0,0,1,2.35,2.24v4.9h-1.09v-4.8c0-.91-.59-1.42-1.58-1.42a1.85,1.85,0,0,0-1.92,1.93v4.29h-1.09V25.41h1.09Z"/><path class="cls-1" d="M191.25,37.22v-1h.06a1.49,1.49,0,0,0,.74.15c.46,0,.77-.18,1-.85l.27-.69-2.73-6.78h1.19l1.65,4.35c.21.58.47,1.36.47,1.36h0s.24-.78.46-1.36L196,28.08h1.16l-3,7.55c-.57,1.45-1.11,1.74-2,1.74A2.3,2.3,0,0,1,191.25,37.22Z"/><path class="cls-1" d="M197.3,32.79h1.13c.14,1.22.95,1.56,2,1.56s1.62-.5,1.62-1.15-.54-1-1.82-1.26-2.6-.56-2.6-2.09c0-1.16.89-1.92,2.51-1.92s2.58.83,2.74,2.19h-1.12c-.11-.92-.61-1.32-1.65-1.32s-1.4.44-1.4,1c0,.75.67.9,1.87,1.14,1.41.29,2.58.6,2.58,2.21,0,1.4-1.15,2.12-2.75,2.12C198.48,35.27,197.41,34.36,197.3,32.79Z"/><path class="cls-1" d="M204.2,25.41h1.1v1.35h-1.1Zm0,2.67h1.1v7h-1.1Z"/><path class="cls-1" d="M206.37,31.58a3.39,3.39,0,0,1,3.37-3.67,2.81,2.81,0,0,1,3,2.43h-1.11a1.75,1.75,0,0,0-1.88-1.53c-1.48,0-2.25,1.23-2.25,2.77s.77,2.75,2.25,2.75a1.74,1.74,0,0,0,1.9-1.72h1.09a2.73,2.73,0,0,1-3,2.64A3.39,3.39,0,0,1,206.37,31.58Z"/><path class="cls-1" d="M218.07,34.09h0a2.82,2.82,0,0,1-2.32,1.11c-1.33,0-2.37-.62-2.37-2,0-1.64,1.3-2,3-2.25,1-.15,1.68-.24,1.68-1s-.57-1.23-1.57-1.23-1.7.49-1.74,1.54h-1.06c0-1.35.94-2.36,2.79-2.36,1.48,0,2.57.55,2.57,2.21v3.32c0,.57.14.88.75.75h0V35a1.42,1.42,0,0,1-.6.11A1.07,1.07,0,0,1,218.07,34.09Zm0-1.61V31.3a5.13,5.13,0,0,1-1.59.51c-1.1.2-2,.39-2,1.42s.73,1.13,1.45,1.13A2,2,0,0,0,218.1,32.48Z"/><path class="cls-1" d="M220.69,25.41h1.09v9.65h-1.09Z"/><path class="cls-1" d="M225,31.8h1.19c.16,1.63,1.16,2.48,3,2.48,1.34,0,2.3-.61,2.3-1.81s-1.17-1.63-2.89-2-3.16-.87-3.16-2.69c0-1.59,1.32-2.55,3.28-2.55,2.41,0,3.41,1.23,3.66,3h-1.15a2.23,2.23,0,0,0-2.49-2.07c-1.31,0-2.17.56-2.17,1.56s1.08,1.41,2.53,1.7c1.87.38,3.59.84,3.59,3,0,1.81-1.47,2.82-3.55,2.82C226.41,35.25,225.12,33.74,225,31.8Z"/><path class="cls-1" d="M233.54,31.58a3.39,3.39,0,0,1,3.37-3.67,2.81,2.81,0,0,1,3,2.43h-1.11a1.75,1.75,0,0,0-1.88-1.53c-1.48,0-2.25,1.23-2.25,2.77s.77,2.75,2.25,2.75a1.74,1.74,0,0,0,1.9-1.72h1.09a2.73,2.73,0,0,1-3,2.64A3.39,3.39,0,0,1,233.54,31.58Z"/><path class="cls-1" d="M240.93,25.41H242v1.35h-1.1Zm0,2.67H242v7h-1.1Z"/><path class="cls-1" d="M243.1,31.58a3.4,3.4,0,0,1,3.3-3.67c2.1,0,3.22,1.62,3.22,3.93h-5.4c.08,1.41.85,2.49,2.25,2.49a1.8,1.8,0,0,0,1.93-1.43h1.07a2.84,2.84,0,0,1-3,2.35A3.36,3.36,0,0,1,243.1,31.58Zm1.14-.57h4.2c-.06-1.39-.78-2.24-2-2.24S244.41,29.74,244.24,31Z"/><path class="cls-1" d="M251.75,29h0A2.62,2.62,0,0,1,254,27.92a2.1,2.1,0,0,1,2.35,2.24v4.9h-1.09v-4.8c0-.91-.59-1.42-1.58-1.42a1.85,1.85,0,0,0-1.92,1.93v4.29h-1.09v-7h1.09Z"/><path class="cls-1" d="M257.37,31.58a3.4,3.4,0,0,1,3.38-3.67,2.8,2.8,0,0,1,3,2.43h-1.11a1.74,1.74,0,0,0-1.87-1.53c-1.49,0-2.26,1.23-2.26,2.77s.77,2.75,2.26,2.75a1.74,1.74,0,0,0,1.9-1.72h1.08a2.72,2.72,0,0,1-3,2.64A3.4,3.4,0,0,1,257.37,31.58Z"/><path class="cls-1" d="M264.36,31.58a3.41,3.41,0,0,1,3.31-3.67c2.1,0,3.22,1.62,3.22,3.93h-5.41c.08,1.41.85,2.49,2.26,2.49a1.8,1.8,0,0,0,1.93-1.43h1.07a2.85,2.85,0,0,1-3,2.35A3.37,3.37,0,0,1,264.36,31.58Zm1.15-.57h4.2c-.07-1.39-.78-2.24-2-2.24S265.67,29.74,265.51,31Z"/><path class="cls-1" d="M271.46,32.79h1.12c.15,1.22,1,1.56,2,1.56s1.62-.5,1.62-1.15-.54-1-1.82-1.26-2.61-.56-2.61-2.09c0-1.16.9-1.92,2.52-1.92s2.58.83,2.74,2.19h-1.12c-.11-.92-.61-1.32-1.65-1.32s-1.4.44-1.4,1c0,.75.67.9,1.87,1.14,1.41.29,2.58.6,2.58,2.21,0,1.4-1.15,2.12-2.75,2.12C272.64,35.27,271.57,34.36,271.46,32.79Z"/><g id="_logo_" data-name="&lt;logo&gt;"><rect class="cls-2" x="20" y="20" width="92" height="44"/><path class="cls-1" d="M34.71,46.23a19,19,0,0,1,0-2.22l1-12h3.85l-1,12.1c-.23,2.62.78,4.48,3.34,4.48s4-1.9,4.24-4.22L47.17,32H51L50,44.22c-.42,4.71-3.48,8.23-8.43,8.23-3.85,0-6.34-2.55-6.81-6.22"/><path class="cls-1" d="M51.9,42.17c.51-5.76,4.32-10.53,10.89-10.53a8.87,8.87,0,0,1,5.06,1.49l-.44,4.76a5.64,5.64,0,0,0-5-2.37c-4.1,0-6.34,2.9-6.66,6.57s1.49,6.48,5.46,6.48a7.29,7.29,0,0,0,5.49-2.47L66.3,51a11,11,0,0,1-5.37,1.5c-6.51,0-9.49-4.93-9-10.32"/><path class="cls-1" d="M70.93,32h3.84L73.36,48.3h5.51c.38,0,1.7,0,2,0,0,.2-.35,3.77-.35,3.77H69.18Z"/><path class="cls-1" d="M90.93,39.49a5.65,5.65,0,0,0,.29-.84h.06a4.61,4.61,0,0,0,.15.85c.21.91,1.7,6,1.7,6H88.28s2.6-5.85,2.65-6m1-8.39h-.27L81.14,52h4.08l1.48-3.18h7.4L95,52H99.1Z"/></g></g></svg>